<?xml version="1.0" encoding="UTF-8"?><svg id="Ebene_2" xmlns="http://www.w3.org/2000/svg" viewBox="0 0 566.36 522.56"><defs><style>.cls-1{fill:#eeddd3;}.cls-2{fill:#fff;}.cls-3{fill:#89532e;}</style></defs><g id="tryouts"><path class="cls-1" d="m445.47,424h-182.23c-66.66,0-120.89-54.23-120.89-120.89V120.89C142.36,54.23,196.59,0,263.24,0h182.23c66.66,0,120.89,54.23,120.89,120.89v182.23c0,66.66-54.23,120.89-120.89,120.89ZM263.24,37c-46.26,0-83.89,37.63-83.89,83.89v182.23c0,46.26,37.63,83.89,83.89,83.89h182.23c46.26,0,83.89-37.63,83.89-83.89V120.89c0-46.26-37.63-83.89-83.89-83.89h-182.23Z"/><path class="cls-1" d="m354.36,321c-60.1,0-109-48.9-109-109s48.9-109,109-109,109,48.9,109,109-48.9,109-109,109Zm0-181c-39.7,0-72,32.3-72,72s32.3,72,72,72,72-32.3,72-72-32.3-72-72-72Z"/><circle class="cls-1" cx="467.36" cy="97" r="26"/><path class="cls-2" d="m165.08,300.1s15.24-24.78,46.72-42.18c31.48-17.39,52.64-15.08,64.85,2.31,12.22,17.39-1.84,44.82-32.28,61.16-30.44,16.34-54.83,19.78-54.83,19.78,0,0,34.56,10.58,57.66,34.82s27.68,42.9,14.07,59.97c-13.61,17.07-46.13,7.78-65.38-10.81-19.25-18.59-29.41-30.51-37.56-47.42,0,0-.46,36-12.75,59.41-12.29,23.41-25.57,44.49-50.99,39.3s-27.73-41.61-12.64-72.18c15.09-30.58,31.79-45.32,31.79-45.32,0,0-32.38,10.37-60.63,6.06-28.25-4.32-55.53-12.58-52.94-42.3,2.58-29.72,52.57-29.75,66.45-27.65s39.55,8.4,51.1,15.68c0,0-18.41-24.14-25.27-56.97-6.86-32.82,1.11-57.82,24.63-61.99s40.48,23.8,45.64,49.67c5.17,25.87,3.94,42.57,2.35,58.67Z"/><circle class="cls-3" cx="148.53" cy="337.65" r="14.2"/><path class="cls-3" d="m336.05,426.38s-15.8-7.25-28.38-24.67c-12.59-17.42-12.74-30.13-3.31-38.63,9.43-8.5,26.71-2.14,38.6,14.73,11.89,16.87,15.68,31.09,15.68,31.09,0,0,3.78-21.26,16.49-36.71s23.45-19.51,34.55-12.67,7.94,26.8-1.69,39.56c-9.64,12.76-15.97,19.64-25.41,25.7,0,0,21.38-2.32,36.15,3.27,14.77,5.6,28.23,11.96,26.99,27.4-1.24,15.45-22.68,19.45-41.9,12.7-19.22-6.74-29.17-15.59-29.17-15.59,0,0,8.49,18.45,7.97,35.52-.52,17.06-3.45,33.84-21.27,34.45s-21.44-29.03-21.2-37.41c.24-8.38,2.13-24.06,5.61-31.44,0,0-12.99,12.66-31.96,19.1s-34.37,3.52-38.54-10.14,11.2-25.72,26.16-30.65c14.97-4.93,24.96-5.41,34.62-5.63Z"/><circle class="cls-2" cx="359.51" cy="433.48" r="8.48"/></g></svg>