<?xml version="1.0" encoding="UTF-8"?>
<svg id="LaBohemienneEmma" xmlns="http://www.w3.org/2000/svg" viewBox="0 0 345.35 98.37">
    <defs>
        <style>
            .cls-1{isolation:isolate;}
        </style>
    </defs>
    <g id="labohemienneemma">
        <g class="cls-1"
        ><g class="cls-1">
            <path d="m53.63,52.05c-.6.2-.8.4-1,.4-12.4,6.8-23.6,15.2-35.2,23.4-2,1.4-4.2,2.8-6.2,4.2-1.6,1-3.4,1.8-5.2,2.4-2.8.8-5-.4-5.8-3.4-.4-1.6-.2-3.2,0-4.8.8-5,2.6-9.4,5-13.8,4.2-7,9.4-13.4,15.8-18.4,1.2-1,2.6-2,3.8-2.6,1.6-1,3.2-1.2,4.8-1.2,2.2.2,3.4,1.4,3.2,3.8-.2,2-1.2,3.8-2.8,5.4-3.4,3.6-7.6,6-12.6,7-2.2.6-4,1.6-5.2,3.6-3,4.4-6,8.8-8,13.8-.6,1.6-1.2,3.4-1.4,5.2-.2,1.4-.6,3,.8,4,1.2,1,2.8.2,4-.4,1.6-.8,3-1.6,4.4-2.6,9-6.4,18-12.6,27.2-18.6,3.8-2.4,7.4-4.8,11.4-6.8.8-.4,1.4-1,3-.6Zm-37.6,1.6c5.6-1.2,10.4-3.6,14-8.2.4-.6.8-1.4.8-2,.4-1.6-.2-2.2-1.8-1.8-1.2.4-2.2,1-3.2,1.8-2.2,1.6-4,3.4-5.8,5.2-1.6,1.4-3,3-4,5Z"/>
            <path d="m93.43,95.85c1.8-.6,2.8-1.4,4-2.4,13.8-10,27.8-19.8,42-29.4,6.4-4.2,12.8-8.4,19.4-12.4.6-.4,1.2-1,2.2-.8-.2,1-1,1.2-1.8,1.6-20.4,13.2-40.6,27.2-60.2,41.8-1.4,1-3,2-4.4,3-.6.2-1.2.6-2,.6-1.4.2-2.2-.6-2.2-2.2-.2-1,.2-2,.6-3,1.2-3.2,2.8-6.2,4.6-9.2,9.2-16.6,20-32,31.6-47,6.6-8.6,13.4-17,20-25.4,1.8-2,3.4-4.2,4.8-6.6.6-.8,1.2-1.4,1.2-2.6-1.2-.4-2,.2-2.8.6-4.2,1.6-8,3.8-11.8,6.2-22.6,14-43,30.6-60.8,50.2-2,2.2-4,4.2-6,6.2-.6.6-1.2,1-2,.6-.8-.4-1-1.2-.8-2,0-.8.2-1.6.4-2.6,1-3.2,1.8-6.6,2.6-10,.4-1.2.6-2.4.6-3.6,0-1-.6-1.4-1.6-1.2-1.2.2-2,.6-3,1.2-4.8,2.6-9,6-13,9.6-4.6,4.4-9.2,9-12.6,14.6-1.8,2.6-3.8,5-5.8,7.4-.4.4-.8,1.2-1.8.6-1-.6-1-1.4-.6-2.4.2-.2.4-.4.6-.8,6.8-11,13.8-22,20.6-33,.2,0,.2-.2.2-.2.6-.6.6-1.8,1.6-1.6s1.4,1.2,1.6,2.2c.4,1.8,0,3.4-1,4.8-1.6,2.4-3.2,5-4.8,7.4-.2.2-.4.6-.6,1.2,1-.2,1.4-.8,1.8-1.2,3.6-3.2,7.2-6,11-8.6,1.6-1,3.2-1.8,5-2.4,3.2-1,5.2.6,5.2,4,0,2.4-.8,4.8-1.4,7.2-.6,1.6-1,3.4-1.6,5.4,1.4-.6,1.8-1.4,2.6-2,7.8-8.2,15.6-16.4,24.2-24,13.4-11.4,27.6-21.4,42.6-30.6,2.6-1.6,5.4-3,8.2-4.2,1.4-.6,3-1,4.6-.8,1.8.2,2.6,1,2.6,3,0,1.6-.6,3-1.2,4.4-1.6,3-3.4,5.8-5.4,8.4-7.2,9.2-14.2,18.4-21.4,27.6-10.4,13.4-20.8,27-30,41.2-1.6,2.8-3.4,5.6-5,8.4-.4.8-.8,1.6-.8,2.8Z"/>
            <path d="m200.03,95.85c1.8-.6,2.8-1.4,4-2.4,13.8-10,27.8-19.8,42-29.4,6.4-4.2,12.8-8.4,19.4-12.4.6-.4,1.2-1,2.2-.8-.2,1-1,1.2-1.8,1.6-20.4,13.2-40.6,27.2-60.2,41.8-1.4,1-3,2-4.4,3-.6.2-1.2.6-2,.6-1.4.2-2.2-.6-2.2-2.2-.2-1,.2-2,.6-3,1.2-3.2,2.8-6.2,4.6-9.2,9.2-16.6,20-32,31.6-47,6.6-8.6,13.4-17,20-25.4,1.8-2,3.4-4.2,4.8-6.6.6-.8,1.2-1.4,1.2-2.6-1.2-.4-2,.2-2.8.6-4.2,1.6-8,3.8-11.8,6.2-22.6,14-43,30.6-60.8,50.2-2,2.2-4,4.2-6,6.2-.6.6-1.2,1-2,.6s-1-1.2-.8-2c0-.8.2-1.6.4-2.6,1-3.2,1.8-6.6,2.6-10,.4-1.2.6-2.4.6-3.6,0-1-.6-1.4-1.6-1.2-1.2.2-2,.6-3,1.2-4.8,2.6-9,6-13,9.6-4.6,4.4-9.2,9-12.6,14.6-1.8,2.6-3.8,5-5.8,7.4-.4.4-.8,1.2-1.8.6-1-.6-1-1.4-.6-2.4.2-.2.4-.4.6-.8,6.8-11,13.8-22,20.6-33,.2,0,.2-.2.2-.2.6-.6.6-1.8,1.6-1.6s1.4,1.2,1.6,2.2c.4,1.8,0,3.4-1,4.8-1.6,2.4-3.2,5-4.8,7.4-.2.2-.4.6-.6,1.2,1-.2,1.4-.8,1.8-1.2,3.6-3.2,7.2-6,11-8.6,1.6-1,3.2-1.8,5-2.4,3.2-1,5.2.6,5.2,4,0,2.4-.8,4.8-1.4,7.2-.6,1.6-1,3.4-1.6,5.4,1.4-.6,1.8-1.4,2.6-2,7.8-8.2,15.6-16.4,24.2-24,13.4-11.4,27.6-21.4,42.6-30.6,2.6-1.6,5.4-3,8.2-4.2,1.4-.6,3-1,4.6-.8,1.8.2,2.6,1,2.6,3,0,1.6-.6,3-1.2,4.4-1.6,3-3.4,5.8-5.4,8.4-7.2,9.2-14.2,18.4-21.4,27.6-10.4,13.4-20.8,27-30,41.2-1.6,2.8-3.4,5.6-5,8.4-.4.8-.8,1.6-.8,2.8Z"/>
            <path d="m289.62,52.45c-3.2,2.6-6.2,4.8-9.2,6.8-4.6,2.8-9.2,5.6-14.2,7.8-1,.4-2.2.8-3.2,1-2.2.6-3.4-.6-3.2-2.8,0-1.4.6-2.6,1.2-4,2.8-6.2,6.8-11.6,11.8-16.2,3.8-3.6,7.8-6.6,12.4-8.8,1.8-.8,3.8-1.4,6-1.4,3.2.2,5.2,2.6,5,6-.2,1-.6,2.2-.6,3.2.8,0,1-.4,1.4-.8.8-1.2,1.8-.2,2.8,0,1,.2.8,1.2.6,1.8,0,1.2-.6,2.2-1,3.2-1.4,2.6-3.2,5.2-5,7.6-5,7.2-10.4,14-14.8,21.6-2.2,4-4.2,7.8-5.6,12-.6,1.6-1.2,3.2-1.2,5,0,2.2.8,2.8,3,2.2,1.6-.6,3.2-1.4,4.6-2.4,2.6-1.8,5.4-3.6,8-5.4,17.6-12.6,35.6-24.6,53.8-36,1-.6,1.8-1.4,3-1.6.4.8-.2.8-.6,1-20.6,13.2-40.8,27-60.8,41.4-2.4,1.8-5,3.4-8,4.4-2.8,1-5.2-.4-6-3-.4-1.8-.2-3.4,0-5,.8-4,2.2-7.6,4-11.2,3.8-8.4,8.8-16,14.2-23.4.6-.8,1-1.4,1.4-2,.2-.2.2-.4.2-1Zm4.2-10.2c.2-2.8-1.2-4-3.6-3.6-1.2.2-2.2.8-3.2,1.2-9.4,5.6-17.2,12.8-23,22-.8,1-1.4,2.2-1.8,3.4-.4.6-.6,1.2-.2,1.6.6.6,1,.2,1.6,0,.6-.2,1.2-.4,1.8-.6,9.8-4.6,19-10.4,26.6-18.2.4-.2,1-.6,1-1-.2-1.8,1-3.4.8-4.8Z"/>
        </g>
        </g>
    </g>
</svg>