<?xml version="1.0" encoding="UTF-8"?>
<svg id="IllustrationSmall1" xmlns="http://www.w3.org/2000/svg" xmlns:xlink="http://www.w3.org/1999/xlink" viewBox="0 0 733 998">
    <defs>
        <style>
            .illu-small1-cls-1{fill:url(#Illu_small1_Unbenannter_Verlauf_14-13);}
            .illu-small1-cls-2{fill:url(#Illu_small1_Unbenannter_Verlauf_14-17);}
            .illu-small1-cls-3{fill:url(#Illu_small1_Unbenannter_Verlauf_14-12);}
            .illu-small1-cls-4{fill:url(#Illu_small1_Unbenannter_Verlauf_14-10);}
            .illu-small1-cls-5{fill:url(#Illu_small1_Unbenannter_Verlauf_14-11);}
            .illu-small1-cls-6{fill:url(#Illu_small1_Unbenannter_Verlauf_14-16);}
            .illu-small1-cls-7{fill:url(#Illu_small1_Unbenannter_Verlauf_14-14);}
            .illu-small1-cls-8{fill:url(#Illu_small1_Unbenannter_Verlauf_14-15);}
            .illu-small1-cls-9{fill:url(#Illu_small1_Unbenannter_Verlauf_18-2);}
            .illu-small1-cls-9,
            .illu-small1-cls-10,
            .illu-small1-cls-11,
            .illu-small1-cls-12,
            .illu-small1-cls-13,
            .illu-small1-cls-14{opacity:.25;}
            .illu-small1-cls-10{fill:url(#Illu_small1_Unbenannter_Verlauf_18-5);}
            .illu-small1-cls-11{fill:url(#Illu_small1_Unbenannter_Verlauf_24-3);}
            .illu-small1-cls-12{fill:url(#Illu_small1_Unbenannter_Verlauf_24-2);}
            .illu-small1-cls-13{fill:url(#Illu_small1_Unbenannter_Verlauf_24-4);}
            .illu-small1-cls-15{fill:url(#Illu_small1_Unbenannter_Verlauf_14-4);}
            .illu-small1-cls-16{fill:url(#Illu_small1_Unbenannter_Verlauf_14-2);}
            .illu-small1-cls-17{fill:url(#Illu_small1_Unbenannter_Verlauf_14-8);}
            .illu-small1-cls-18{fill:url(#Illu_small1_Unbenannter_Verlauf_14-3);}
            .illu-small1-cls-19{fill:url(#Illu_small1_Unbenannter_Verlauf_14-5);}
            .illu-small1-cls-20{fill:url(#Illu_small1_Unbenannter_Verlauf_14-6);}
            .illu-small1-cls-21{fill:url(#Illu_small1_Unbenannter_Verlauf_14-7);}
            .illu-small1-cls-22{fill:url(#Illu_small1_Unbenannter_Verlauf_14-9);}
            .illu-small1-cls-23{fill:url(#Illu_small1_Unbenannter_Verlauf_24-5);}
            .illu-small1-cls-23,
            .illu-small1-cls-24,
            .illu-small1-cls-25,
            .illu-small1-cls-26,
            .illu-small1-cls-27{opacity:.35;}
            .illu-small1-cls-24{fill:url(#Illu_small1_Unbenannter_Verlauf_18-4);}
            .illu-small1-cls-25{fill:url(#Illu_small1_Unbenannter_Verlauf_18-3);}
            .illu-small1-cls-26{fill:url(#Illu_small1_Unbenannter_Verlauf_18);}
            .illu-small1-cls-27{fill:url(#Illu_small1_Unbenannter_Verlauf_24);}
            .illu-small1-cls-28{fill:url(#Illu_small1_Unbenannter_Verlauf_13);}
            .illu-small1-cls-28,
            .illu-small1-cls-29{opacity:.5;}
            .illu-small1-cls-30,
            .illu-small1-cls-31{fill:#fff;}
            .illu-small1-cls-32{fill:#130834;}
            .illu-small1-cls-33,
            .illu-small1-cls-34,
            .illu-small1-cls-31{opacity:.75;}
            .illu-small1-cls-35{fill:url(#Illu_small1_Unbenannter_Verlauf_336);}
            .illu-small1-cls-36{fill:url(#Illu_small1_Unbenannter_Verlauf_14);}
            .illu-small1-cls-37{fill:url(#Illu_small1_Unbenannter_Verlauf_29);}
            .illu-small1-cls-38{fill:url(#Illu_small1_Unbenannter_Verlauf_32);}
            .illu-small1-cls-39{fill:url(#Illu_small1_Unbenannter_Verlauf_39);}
            .illu-small1-cls-40{fill:url(#Illu_small1_Unbenannter_Verlauf_34);}
            .illu-small1-cls-41{fill:url(#Illu_small1_Unbenannter_Verlauf_31);}
            .illu-small1-cls-42{fill:url(#Illu_small1_Unbenannter_Verlauf_42);}
            .illu-small1-cls-43{fill:url(#Illu_small1_Unbenannter_Verlauf_37);}
            .illu-small1-cls-44{fill:url(#Illu_small1_Unbenannter_Verlauf_4);}
            .illu-small1-cls-29{fill:#27155c;}
            .illu-small1-cls-34{fill:#190a46;}
        </style>
        <radialGradient id="Illu_small1_Unbenannter_Verlauf_14" cx="440.49" cy="396.99" fx="440.49" fy="396.99" r="20.34" gradientUnits="userSpaceOnUse">
            <stop offset="0" stop-color="#fcea0d"/>
            <stop offset="0" stop-color="#fff" stop-opacity=".94"/>
            <stop offset="1" stop-color="#fff" stop-opacity="0"/>
        </radialGradient>
        <radialGradient id="Illu_small1_Unbenannter_Verlauf_14-2" cx="549.56" cy="159.43" fx="549.56" fy="159.43" r="20.34" xlink:href="#Illu_small1_Unbenannter_Verlauf_14"/>
        <radialGradient id="Illu_small1_Unbenannter_Verlauf_14-3" cx="38.56" cy="215.43" fx="38.56" fy="215.43" r="20.34" xlink:href="#Illu_small1_Unbenannter_Verlauf_14"/>
        <radialGradient id="Illu_small1_Unbenannter_Verlauf_14-4" cx="611.56" cy="829.43" fx="611.56" fy="829.43" r="20.34" xlink:href="#Illu_small1_Unbenannter_Verlauf_14"/>
        <radialGradient id="Illu_small1_Unbenannter_Verlauf_14-5" cx="235.56" cy="828.43" fx="235.56" fy="828.43" r="20.34" xlink:href="#Illu_small1_Unbenannter_Verlauf_14"/>
        <radialGradient id="Illu_small1_Unbenannter_Verlauf_14-6" cx="310.19" cy="494.94" fx="310.19" fy="494.94" xlink:href="#Illu_small1_Unbenannter_Verlauf_14"/>
        <radialGradient id="Illu_small1_Unbenannter_Verlauf_14-7" cx="98.39" cy="455.65" fx="98.39" fy="455.65" r="12.58" xlink:href="#Illu_small1_Unbenannter_Verlauf_14"/>
        <radialGradient id="Illu_small1_Unbenannter_Verlauf_14-8" cx="424.77" cy="205.69" fx="424.77" fy="205.69" r="12.58" xlink:href="#Illu_small1_Unbenannter_Verlauf_14"/>
        <radialGradient id="Illu_small1_Unbenannter_Verlauf_14-9" cx="71.77" cy="55.69" fx="71.77" fy="55.69" r="12.58" xlink:href="#Illu_small1_Unbenannter_Verlauf_14"/>
        <radialGradient id="Illu_small1_Unbenannter_Verlauf_14-10" cx="719.77" cy="325.69" fx="719.77" fy="325.69" r="12.58" xlink:href="#Illu_small1_Unbenannter_Verlauf_14"/>
        <radialGradient id="Illu_small1_Unbenannter_Verlauf_14-11" cx="583.77" cy="891.69" fx="583.77" fy="891.69" r="12.58" xlink:href="#Illu_small1_Unbenannter_Verlauf_14"/>
        <radialGradient id="Illu_small1_Unbenannter_Verlauf_14-12" cx="129.77" cy="959.69" fx="129.77" fy="959.69" r="12.58" xlink:href="#Illu_small1_Unbenannter_Verlauf_14"/>
        <radialGradient id="Illu_small1_Unbenannter_Verlauf_14-13" cx="642.9" cy="432.51" fx="642.9" fy="432.51" r="12.58" xlink:href="#Illu_small1_Unbenannter_Verlauf_14"/>
        <radialGradient id="Illu_small1_Unbenannter_Verlauf_14-14" cx="433.04" cy="672.79" fx="433.04" fy="672.79" r="12.58" xlink:href="#Illu_small1_Unbenannter_Verlauf_14"/>
        <radialGradient id="Illu_small1_Unbenannter_Verlauf_14-15" cx="195.22" cy="646.17" fx="195.22" fy="646.17" r="20.34" xlink:href="#Illu_small1_Unbenannter_Verlauf_14"/>
        <radialGradient id="Illu_small1_Unbenannter_Verlauf_14-16" cx="589.97" cy="502.74" fx="589.97" fy="502.74" xlink:href="#Illu_small1_Unbenannter_Verlauf_14"/>
        <radialGradient id="Illu_small1_Unbenannter_Verlauf_14-17" cx="165.54" cy="256.29" fx="165.54" fy="256.29" r="25.8" xlink:href="#Illu_small1_Unbenannter_Verlauf_14"/>
        <radialGradient id="Illu_small1_Unbenannter_Verlauf_18" cx="368.96" cy="379.7" fx="368.96" fy="379.7" r="17.74" gradientUnits="userSpaceOnUse">
            <stop offset=".5" stop-color="#b8e1ee"/>
            <stop offset=".82" stop-color="#8aced3" stop-opacity=".37"/>
            <stop offset="1" stop-color="#70c4c4" stop-opacity="0"/>
        </radialGradient>
        <radialGradient id="Illu_small1_Unbenannter_Verlauf_24" cx="461.48" cy="432.91" fx="461.48" fy="432.91" r="17.74" gradientUnits="userSpaceOnUse">
            <stop offset="0" stop-color="#b8e1ee" stop-opacity="0"/>
            <stop offset=".12" stop-color="#b8e1ee" stop-opacity=".01"/>
            <stop offset=".22" stop-color="#b8e1ee" stop-opacity=".06"/>
            <stop offset=".31" stop-color="#b8e1ee" stop-opacity=".13"/>
            <stop offset=".39" stop-color="#b8e1ee" stop-opacity=".23"/>
            <stop offset=".47" stop-color="#b8e1ee" stop-opacity=".36"/>
            <stop offset=".55" stop-color="#b8e1ee" stop-opacity=".52"/>
            <stop offset=".63" stop-color="#b8e1ee" stop-opacity=".71"/>
            <stop offset=".7" stop-color="#b8e1ee" stop-opacity=".92"/>
            <stop offset=".73" stop-color="#b8e1ee"/>
            <stop offset=".9" stop-color="#8aced3" stop-opacity=".37"/>
            <stop offset="1" stop-color="#70c4c4" stop-opacity="0"/>
        </radialGradient>
        <radialGradient id="Illu_small1_Unbenannter_Verlauf_18-2" cx="382.09" cy="540.02" fx="382.09" fy="540.02" r="17.74" xlink:href="#Illu_small1_Unbenannter_Verlauf_18"/>
        <radialGradient id="Illu_small1_Unbenannter_Verlauf_24-2" cx="298.04" cy="482.68" fx="298.04" fy="482.68" r="10.83" xlink:href="#Illu_small1_Unbenannter_Verlauf_24"/>
        <radialGradient id="Illu_small1_Unbenannter_Verlauf_24-3" cx="409.03" cy="315.25" fx="409.03" fy="315.25" r="10.83" xlink:href="#Illu_small1_Unbenannter_Verlauf_24"/>
        <radialGradient id="Illu_small1_Unbenannter_Verlauf_18-3" cx="419.86" cy="477.38" fx="419.86" fy="477.38" r="10.83" xlink:href="#Illu_small1_Unbenannter_Verlauf_18"/>
        <radialGradient id="Illu_small1_Unbenannter_Verlauf_18-4" cx="213.3" cy="361.97" fx="213.3" fy="361.97" r="10.83" xlink:href="#Illu_small1_Unbenannter_Verlauf_18"/>
        <radialGradient id="Illu_small1_Unbenannter_Verlauf_24-4" cx="324.27" cy="229.72" fx="324.27" fy="229.72" r="10.83" xlink:href="#Illu_small1_Unbenannter_Verlauf_24"/>
        <radialGradient id="Illu_small1_Unbenannter_Verlauf_24-5" cx="426.71" cy="647.04" fx="426.71" fy="647.04" r="10.83" xlink:href="#Illu_small1_Unbenannter_Verlauf_24"/>
        <radialGradient id="Illu_small1_Unbenannter_Verlauf_18-5" cx="539.26" cy="471.85" fx="539.26" fy="471.85" r="10.83" xlink:href="#Illu_small1_Unbenannter_Verlauf_18"/>
        <linearGradient id="Illu_small1_Unbenannter_Verlauf_31" x1="267.97" y1="487.52" x2="240.43" y2="501.19" gradientTransform="translate(67.51 -32.22) rotate(-6.14) scale(1.3 1.05) skewX(-10.99)" gradientUnits="userSpaceOnUse">
            <stop offset="0" stop-color="#fff" stop-opacity=".9"/>
            <stop offset=".04" stop-color="#fff" stop-opacity=".85"/>
            <stop offset=".31" stop-color="#fff" stop-opacity=".55"/>
            <stop offset=".55" stop-color="#fff" stop-opacity=".32"/>
            <stop offset=".75" stop-color="#fff" stop-opacity=".14"/>
            <stop offset=".91" stop-color="#fff" stop-opacity=".04"/>
            <stop offset="1" stop-color="#fff" stop-opacity="0"/>
        </linearGradient>
        <linearGradient id="Illu_small1_Unbenannter_Verlauf_39" x1="456.5" y1="444.22" x2="426.61" y2="435.3" gradientTransform="translate(-537.87 -175.99) rotate(7.71) scale(1.72 1.03) skewX(12.24)" gradientUnits="userSpaceOnUse">
            <stop offset="0" stop-color="#fff" stop-opacity=".7"/>
            <stop offset=".07" stop-color="#fff" stop-opacity=".54"/>
            <stop offset=".15" stop-color="#fff" stop-opacity=".39"/>
            <stop offset=".23" stop-color="#fff" stop-opacity=".27"/>
            <stop offset=".32" stop-color="#fff" stop-opacity=".17"/>
            <stop offset=".42" stop-color="#fff" stop-opacity=".1"/>
            <stop offset=".54" stop-color="#fff" stop-opacity=".04"/>
            <stop offset=".68" stop-color="#fff" stop-opacity="0"/>
            <stop offset=".94" stop-color="#fff" stop-opacity="0"/>
        </linearGradient>
        <linearGradient id="Illu_small1_Unbenannter_Verlauf_34" x1="259.96" y1="588.59" x2="288.9" y2="554.02" gradientTransform="translate(310.39 -369.72) rotate(-16.57) scale(1.39 1.3) skewX(-29.91)" gradientUnits="userSpaceOnUse">
            <stop offset="0" stop-color="#fff" stop-opacity=".7"/>
            <stop offset=".07" stop-color="#fff" stop-opacity=".61"/>
            <stop offset=".22" stop-color="#fff" stop-opacity=".42"/>
            <stop offset=".37" stop-color="#fff" stop-opacity=".27"/>
            <stop offset=".53" stop-color="#fff" stop-opacity=".15"/>
            <stop offset=".67" stop-color="#fff" stop-opacity=".07"/>
            <stop offset=".81" stop-color="#fff" stop-opacity=".02"/>
            <stop offset=".95" stop-color="#fff" stop-opacity="0"/>
        </linearGradient>
        <linearGradient id="Illu_small1_Unbenannter_Verlauf_32" x1="592.65" y1="610.17" x2="627.03" y2="639.4" gradientTransform="translate(-575.23 -510.2) rotate(13.14) scale(1.39 1.18) skewX(23.28)" gradientUnits="userSpaceOnUse">
            <stop offset="0" stop-color="#fff" stop-opacity=".7"/>
            <stop offset=".1" stop-color="#fff" stop-opacity=".55"/>
            <stop offset=".24" stop-color="#fff" stop-opacity=".38"/>
            <stop offset=".38" stop-color="#fff" stop-opacity=".24"/>
            <stop offset=".52" stop-color="#fff" stop-opacity=".14"/>
            <stop offset=".66" stop-color="#fff" stop-opacity=".06"/>
            <stop offset=".8" stop-color="#fff" stop-opacity=".02"/>
            <stop offset=".95" stop-color="#fff" stop-opacity="0"/>
        </linearGradient>
        <linearGradient id="Illu_small1_Unbenannter_Verlauf_37" x1="341.1" y1="444.6" x2="368.8" y2="431.95" gradientTransform="translate(48.99 -25.75) rotate(-8.34) scale(1.4 1.07) skewX(-14.47)" gradientUnits="userSpaceOnUse">
            <stop offset="0" stop-color="#fff"/>
            <stop offset=".08" stop-color="#fff" stop-opacity=".79"/>
            <stop offset=".17" stop-color="#fff" stop-opacity=".61"/>
            <stop offset=".26" stop-color="#fff" stop-opacity=".44"/>
            <stop offset=".35" stop-color="#fff" stop-opacity=".31"/>
            <stop offset=".45" stop-color="#fff" stop-opacity=".19"/>
            <stop offset=".56" stop-color="#fff" stop-opacity=".11"/>
            <stop offset=".68" stop-color="#fff" stop-opacity=".05"/>
            <stop offset=".81" stop-color="#fff" stop-opacity=".01"/>
            <stop offset="1" stop-color="#fff" stop-opacity="0"/>
        </linearGradient>
        <linearGradient id="Illu_small1_Unbenannter_Verlauf_29" x1="585.77" y1="600.43" x2="559.17" y2="585.06" gradientTransform="translate(-1108.29 -987.77) rotate(21.3) scale(1.91 1.26) skewX(32.88)" gradientUnits="userSpaceOnUse">
            <stop offset="0" stop-color="#fff" stop-opacity=".9"/>
            <stop offset=".07" stop-color="#fff" stop-opacity=".79"/>
            <stop offset=".25" stop-color="#fff" stop-opacity=".55"/>
            <stop offset=".42" stop-color="#fff" stop-opacity=".36"/>
            <stop offset=".58" stop-color="#fff" stop-opacity=".2"/>
            <stop offset=".73" stop-color="#fff" stop-opacity=".09"/>
            <stop offset=".85" stop-color="#fff" stop-opacity=".02"/>
            <stop offset=".95" stop-color="#fff" stop-opacity="0"/>
        </linearGradient>
        <linearGradient id="Illu_small1_Unbenannter_Verlauf_336" x1="1709.7" y1="5088.86" x2="1713.49" y2="5110.36" gradientTransform="translate(-2069.47 -7332.01) rotate(7.55) scale(1.05 1.46) skewX(17.57)" gradientUnits="userSpaceOnUse">
            <stop offset="0" stop-color="#fff" stop-opacity=".5"/>
            <stop offset=".9" stop-color="#fff" stop-opacity="0"/>
        </linearGradient>
        <radialGradient id="Illu_small1_Unbenannter_Verlauf_42" cx="386.69" cy="425.43" fx="386.69" fy="425.43" r="71.43" gradientUnits="userSpaceOnUse">
            <stop offset=".76" stop-color="#70c4c4"/>
            <stop offset="1" stop-color="#9fd5d5" stop-opacity="0"/>
        </radialGradient>
        <radialGradient id="Illu_small1_Unbenannter_Verlauf_4" cx="392.95" cy="428.51" fx="392.95" fy="428.51" r="54.48" gradientTransform="translate(14.54 -21.09) rotate(2.72)" gradientUnits="userSpaceOnUse">
            <stop offset="0" stop-color="#70c4c4"/>
            <stop offset="1" stop-color="#fff" stop-opacity=".8"/>
        </radialGradient>
        <radialGradient id="Illu_small1_Unbenannter_Verlauf_13" cx="386.69" cy="425.43" fx="386.69" fy="425.43" r="305.31" gradientUnits="userSpaceOnUse">
            <stop offset="0" stop-color="#b8e1ee" stop-opacity="0"/>
            <stop offset=".15" stop-color="#b4dfec" stop-opacity=".02"/>
            <stop offset=".31" stop-color="#abdbe6" stop-opacity=".08"/>
            <stop offset=".46" stop-color="#9bd5dd" stop-opacity=".18"/>
            <stop offset=".61" stop-color="#85ccd0" stop-opacity=".32"/>
            <stop offset=".73" stop-color="#70c4c4" stop-opacity=".46"/>
            <stop offset=".77" stop-color="#83cbcf" stop-opacity=".55"/>
            <stop offset=".86" stop-color="#b3dfeb" stop-opacity=".78"/>
            <stop offset=".86" stop-color="#b8e1ee" stop-opacity=".8"/>
            <stop offset=".88" stop-color="#afdde8" stop-opacity=".78"/>
            <stop offset=".9" stop-color="#97d3db" stop-opacity=".71"/>
            <stop offset=".93" stop-color="#71c4c4" stop-opacity=".6"/>
            <stop offset=".93" stop-color="#70c4c4" stop-opacity=".6"/>
            <stop offset=".94" stop-color="#70c4c4" stop-opacity=".56"/>
            <stop offset=".96" stop-color="#70c4c4" stop-opacity=".43"/>
            <stop offset=".98" stop-color="#70c4c4" stop-opacity=".24"/>
            <stop offset="1" stop-color="#70c4c4" stop-opacity="0"/>
        </radialGradient>
    </defs>
    <g id="illustration_small1">
        <g class="illu-small1-bg">
            <rect class="illu-small1-cls-32" width="733" height="998"/>
            <path class="illu-small1-cls-34" d="m732.99,483.47c-137.61-136.72-335.5-222.47-555.42-222.47-59.74,0-117.85,6.33-173.58,18.29v718.71h728.99V483.47Z"/>
            <path class="illu-small1-cls-29" d="m733,807.11c-137.08-168.68-357.37-278.08-605.77-278.08-41.97,0-83.13,3.12-123.23,9.13v459.85h728.99v-190.89Z"/>
        </g>
        <g class="illu-small1-cls-33 illu-small1-bg-specks-white">
            <circle class="illu-small1-cls-30" cx="475.84" cy="301.34" r="2.64"/>
            <circle class="illu-small1-cls-30" cx="533.85" cy="718.88" r="2.64"/>
            <circle class="illu-small1-cls-30" cx="551.85" cy="961.88" r="2.64"/>
            <circle class="illu-small1-cls-30" cx="350.85" cy="937.88" r="2.64"/>
            <circle class="illu-small1-cls-30" cx="544.89" cy="591.08" r="2.64"/>
            <circle class="illu-small1-cls-30" cx="376.07" cy="710.51" r="2.64"/>
            <circle class="illu-small1-cls-30" cx="227.87" cy="566.25" r="2.64"/>
            <circle class="illu-small1-cls-30" cx="106.66" cy="258.93" r="2.64"/>
            <circle class="illu-small1-cls-30" cx="87.66" cy="592.93" r="2.64"/>
            <circle class="illu-small1-cls-30" cx="141.66" cy="849.93" r="2.64"/>
            <circle class="illu-small1-cls-30" cx="123.66" cy="610.93" r="2.64"/>
            <circle class="illu-small1-cls-30" cx="296.66" cy="784.93" r="2.64"/>
            <circle class="illu-small1-cls-30" cx="362.66" cy="970.93" r="2.64"/>
            <circle class="illu-small1-cls-30" cx="253.78" cy="403.22" r="2.64"/>
            <circle class="illu-small1-cls-30" cx="331.91" cy="143.72" r="2.64"/>
            <circle class="illu-small1-cls-30" cx="329.27" cy="288.81" r="2.64"/>
            <circle class="illu-small1-cls-30" cx="132.47" cy="26.47" r="2.64"/>
            <circle class="illu-small1-cls-30" cx="252.47" cy="82.47" r="2.64"/>
            <circle class="illu-small1-cls-30" cx="680.96" cy="315.7" r="2.64"/>
            <circle class="illu-small1-cls-30" cx="695.96" cy="31.7" r="2.64"/>
            <circle class="illu-small1-cls-30" cx="644.96" cy="88.7" r="2.64"/>
            <circle class="illu-small1-cls-30" cx="389.96" cy="79.7" r="2.64"/>
        </g>
        <g class="illu-small1-cls-14 illu-small1-bg-specks-light">
            <circle class="illu-small1-cls-30" cx="668.85" cy="922.88" r="2.64"/>
            <circle class="illu-small1-cls-30" cx="672.85" cy="799.88" r="2.64"/>
            <circle class="illu-small1-cls-30" cx="411.85" cy="835.88" r="2.64"/>
            <circle class="illu-small1-cls-30" cx="213.85" cy="970.88" r="2.64"/>
            <circle class="illu-small1-cls-30" cx="665.85" cy="649.88" r="2.64"/>
            <circle class="illu-small1-cls-30" cx="238.28" cy="533.17" r="2.64"/>
            <circle class="illu-small1-cls-30" cx="111.94" cy="487.03" r="2.64"/>
            <circle class="illu-small1-cls-30" cx="26.66" cy="703.93" r="2.64"/>
            <circle class="illu-small1-cls-30" cx="164.66" cy="732.93" r="2.64"/>
            <circle class="illu-small1-cls-30" cx="26.66" cy="163.93" r="2.64"/>
            <circle class="illu-small1-cls-30" cx="155.66" cy="120.93" r="2.64"/>
            <circle class="illu-small1-cls-30" cx="35.66" cy="388.93" r="2.64"/>
            <circle class="illu-small1-cls-30" cx="38.66" cy="925.93" r="2.64"/>
            <circle class="illu-small1-cls-30" cx="435.68" cy="492.3" r="2.64"/>
            <circle class="illu-small1-cls-30" cx="225.23" cy="216.59" r="2.64"/>
            <circle class="illu-small1-cls-30" cx="165.54" cy="327.89" r="2.64"/>
            <circle class="illu-small1-cls-30" cx="428.72" cy="593.72" r="2.64"/>
            <circle class="illu-small1-cls-30" cx="490.65" cy="156.79" r="2.64"/>
            <circle class="illu-small1-cls-30" cx="478.47" cy="130.47" r="2.64"/>
            <circle class="illu-small1-cls-30" cx="267.47" cy="58.47" r="2.64"/>
            <circle class="illu-small1-cls-30" cx="589.97" cy="256.29" r="2.64"/>
            <circle class="illu-small1-cls-30" cx="533.96" cy="31.7" r="2.64"/>
            <circle class="illu-small1-cls-30" cx="704.96" cy="160.7" r="2.64"/>
            <circle class="illu-small1-cls-30" cx="565.28" cy="415.34" r="2.64"/>
            <circle class="illu-small1-cls-30" cx="661.93" cy="530.53" r="2.64"/>
        </g>
        <g class="illu-small1-stars">
            <path class="illu-small1-cls-30" d="m456.21,396.99l-5.06,1.42c-4.47,1.26-7.97,4.75-9.23,9.23l-1.42,5.06-1.43-5.07c-1.26-4.47-4.75-7.96-9.21-9.21l-5.07-1.43,5.06-1.42c4.47-1.26,7.97-4.75,9.23-9.23l1.42-5.06,1.43,5.07c1.26,4.47,4.75,7.96,9.21,9.21l5.07,1.43Z"/>
            <circle class="illu-small1-cls-36" cx="440.49" cy="396.99" r="20.34"/>
            <path class="illu-small1-cls-30" d="m565.28,159.43l-5.06,1.42c-4.47,1.26-7.97,4.75-9.23,9.23l-1.42,5.06-1.43-5.07c-1.26-4.47-4.75-7.96-9.21-9.21l-5.07-1.43,5.06-1.42c4.47-1.26,7.97-4.75,9.23-9.23l1.42-5.06,1.43,5.07c1.26,4.47,4.75,7.96,9.21,9.21l5.07,1.43Z"/>
            <circle class="illu-small1-cls-16" cx="549.56" cy="159.43" r="20.34"/>
            <path class="illu-small1-cls-30" d="m54.28,215.43l-5.06,1.42c-4.47,1.26-7.97,4.75-9.23,9.23l-1.42,5.06-1.43-5.07c-1.26-4.47-4.75-7.96-9.21-9.21l-5.07-1.43,5.06-1.42c4.47-1.26,7.97-4.75,9.23-9.23l1.42-5.06,1.43,5.07c1.26,4.47,4.75,7.96,9.21,9.21l5.07,1.43Z"/>
            <circle class="illu-small1-cls-18" cx="38.56" cy="215.43" r="20.34"/>
            <path class="illu-small1-cls-30" d="m627.28,829.43l-5.06,1.42c-4.47,1.26-7.97,4.75-9.23,9.23l-1.42,5.06-1.43-5.07c-1.26-4.47-4.75-7.96-9.21-9.21l-5.07-1.43,5.06-1.42c4.47-1.26,7.97-4.75,9.23-9.23l1.42-5.06,1.43,5.07c1.26,4.47,4.75,7.96,9.21,9.21l5.07,1.43Z"/>
            <circle class="illu-small1-cls-15" cx="611.56" cy="829.43" r="20.34"/>
            <path class="illu-small1-cls-30" d="m251.28,828.43l-5.06,1.42c-4.47,1.26-7.97,4.75-9.23,9.23l-1.42,5.06-1.43-5.07c-1.26-4.47-4.75-7.96-9.21-9.21l-5.07-1.43,5.06-1.42c4.47-1.26,7.97-4.75,9.23-9.23l1.42-5.06,1.43,5.07c1.26,4.47,4.75,7.96,9.21,9.21l5.07,1.43Z"/>
            <circle class="illu-small1-cls-19" cx="235.56" cy="828.43" r="20.34"/>
            <path class="illu-small1-cls-30" d="m325.9,494.94l-5.06,1.42c-4.47,1.26-7.97,4.75-9.23,9.23l-1.42,5.06-1.43-5.07c-1.26-4.47-4.75-7.96-9.21-9.21l-5.07-1.43,5.06-1.42c4.47-1.26,7.97-4.75,9.23-9.23l1.42-5.06,1.43,5.07c1.26,4.47,4.75,7.96,9.21,9.21l5.07,1.43Z"/>
            <circle class="illu-small1-cls-20" cx="310.19" cy="494.94" r="20.34"/>
            <path class="illu-small1-cls-30" d="m109.3,455.65l-3.51.99c-3.1.87-5.53,3.3-6.4,6.4l-.99,3.51-.99-3.52c-.87-3.1-3.29-5.52-6.39-6.39l-3.52-.99,3.51-.99c3.1-.87,5.53-3.3,6.4-6.4l.99-3.51.99,3.52c.87,3.1,3.29,5.52,6.39,6.39l3.52.99Z"/>
            <circle class="illu-small1-cls-21" cx="98.39" cy="455.65" r="12.58"/>
            <path class="illu-small1-cls-30" d="m435.68,205.69l-3.51.99c-3.1.87-5.53,3.3-6.4,6.4l-.99,3.51-.99-3.52c-.87-3.1-3.29-5.52-6.39-6.39l-3.52-.99,3.51-.99c3.1-.87,5.53-3.3,6.4-6.4l.99-3.51.99,3.52c.87,3.1,3.29,5.52,6.39,6.39l3.52.99Z"/>
            <circle class="illu-small1-cls-17" cx="424.77" cy="205.69" r="12.58"/>
            <path class="illu-small1-cls-30" d="m82.68,55.69l-3.51.99c-3.1.87-5.53,3.3-6.4,6.4l-.99,3.51-.99-3.52c-.87-3.1-3.29-5.52-6.39-6.39l-3.52-.99,3.51-.99c3.1-.87,5.53-3.3,6.4-6.4l.99-3.51.99,3.52c.87,3.1,3.29,5.52,6.39,6.39l3.52.99Z"/>
            <circle class="illu-small1-cls-22" cx="71.77" cy="55.69" r="12.58"/>
            <path class="illu-small1-cls-30" d="m730.68,325.69l-3.51.99c-3.1.87-5.53,3.3-6.4,6.4l-.99,3.51-.99-3.52c-.87-3.1-3.29-5.52-6.39-6.39l-3.52-.99,3.51-.99c3.1-.87,5.53-3.3,6.4-6.4l.99-3.51.99,3.52c.87,3.1,3.29,5.52,6.39,6.39l3.52.99Z"/>
            <circle class="illu-small1-cls-4" cx="719.77" cy="325.69" r="12.58"/>
            <path class="illu-small1-cls-30" d="m594.68,891.69l-3.51.99c-3.1.87-5.53,3.3-6.4,6.4l-.99,3.51-.99-3.52c-.87-3.1-3.29-5.52-6.39-6.39l-3.52-.99,3.51-.99c3.1-.87,5.53-3.3,6.4-6.4l.99-3.51.99,3.52c.87,3.1,3.29,5.52,6.39,6.39l3.52.99Z"/>
            <circle class="illu-small1-cls-5" cx="583.77" cy="891.69" r="12.58"/>
            <path class="illu-small1-cls-30" d="m140.68,959.69l-3.51.99c-3.1.87-5.53,3.3-6.4,6.4l-.99,3.51-.99-3.52c-.87-3.1-3.29-5.52-6.39-6.39l-3.52-.99,3.51-.99c3.1-.87,5.53-3.3,6.4-6.4l.99-3.51.99,3.52c.87,3.1,3.29,5.52,6.39,6.39l3.52.99Z"/>
            <circle class="illu-small1-cls-3" cx="129.77" cy="959.69" r="12.58"/>
            <path class="illu-small1-cls-30" d="m653.8,432.51l-3.51.99c-3.1.87-5.53,3.3-6.4,6.4l-.99,3.51-.99-3.52c-.87-3.1-3.29-5.52-6.39-6.39l-3.52-.99,3.51-.99c3.1-.87,5.53-3.3,6.4-6.4l.99-3.51.99,3.52c.87,3.1,3.29,5.52,6.39,6.39l3.52.99Z"/>
            <circle class="illu-small1-cls-1" cx="642.9" cy="432.51" r="12.58"/>
            <path class="illu-small1-cls-30" d="m443.94,672.79l-3.51.99c-3.1.87-5.53,3.3-6.4,6.4l-.99,3.51-.99-3.52c-.87-3.1-3.29-5.52-6.39-6.39l-3.52-.99,3.51-.99c3.1-.87,5.53-3.3,6.4-6.4l.99-3.51.99,3.52c.87,3.1,3.29,5.52,6.39,6.39l3.52.99Z"/>
            <circle class="illu-small1-cls-7" cx="433.04" cy="672.79" r="12.58"/>
            <path class="illu-small1-cls-30" d="m210.93,646.17l-5.06,1.42c-4.47,1.26-7.97,4.75-9.23,9.23l-1.42,5.06-1.43-5.07c-1.26-4.47-4.75-7.96-9.21-9.21l-5.07-1.43,5.06-1.42c4.47-1.26,7.97-4.75,9.23-9.23l1.42-5.06,1.43,5.07c1.26,4.47,4.75,7.96,9.21,9.21l5.07,1.43Z"/>
            <circle class="illu-small1-cls-8" cx="195.22" cy="646.17" r="20.34"/>
            <path class="illu-small1-cls-30" d="m605.69,502.74l-5.06,1.42c-4.47,1.26-7.97,4.75-9.23,9.23l-1.42,5.06-1.43-5.07c-1.26-4.47-4.75-7.96-9.21-9.21l-5.07-1.43,5.06-1.42c4.47-1.26,7.97-4.75,9.23-9.23l1.42-5.06,1.43,5.07c1.26,4.47,4.75,7.96,9.21,9.21l5.07,1.43Z"/>
            <circle class="illu-small1-cls-6" cx="589.97" cy="502.74" r="20.34"/>
            <path class="illu-small1-cls-30" d="m187.49,256.29l-7.07,1.99c-6.25,1.76-11.13,6.64-12.88,12.88l-1.99,7.07-2-7.08c-1.76-6.24-6.63-11.11-12.87-12.87l-7.08-2,7.07-1.99c6.25-1.76,11.13-6.64,12.88-12.88l1.99-7.07,2,7.08c1.76,6.24,6.63,11.11,12.87,12.87l7.08,2Z"/>
            <circle class="illu-small1-cls-2" cx="165.54" cy="256.29" r="25.8"/>
        </g>
        <g class="illu-small1-particles">
            <circle class="illu-small1-cls-26" cx="368.96" cy="379.7" r="17.74"/>
            <circle class="illu-small1-cls-27" cx="461.48" cy="432.91" r="17.74"/>
            <circle class="illu-small1-cls-9" cx="382.09" cy="540.02" r="17.74"/>
            <circle class="illu-small1-cls-12" cx="298.04" cy="482.68" r="10.83"/>
            <circle class="illu-small1-cls-11" cx="409.03" cy="315.25" r="10.83"/>
            <circle class="illu-small1-cls-25" cx="419.86" cy="477.38" r="10.83"/>
            <circle class="illu-small1-cls-24" cx="213.3" cy="361.97" r="10.83"/>
            <circle class="illu-small1-cls-13" cx="324.27" cy="229.72" r="10.83"/>
            <circle class="illu-small1-cls-23" cx="426.71" cy="647.04" r="10.83"/>
            <circle class="illu-small1-cls-10" cx="539.26" cy="471.85" r="10.83"/>
        </g>
        <g class="illu-small1-lights-shine-outward">
            <polygon class="illu-small1-cls-41" points="344.03 446.97 347.72 454.71 313.53 476.33 305.72 459.97 344.03 446.97"/>
            <polygon class="illu-small1-cls-39" points="344.66 403.93 341.99 412.08 290.38 400.22 296.02 382.99 344.66 403.93"/>
            <polygon class="illu-small1-cls-40" points="423.77 400.05 417.2 394.54 463.59 331.85 477.47 343.51 423.77 400.05"/>
            <polygon class="illu-small1-cls-38" points="417.8 459.67 423.49 453.26 479.5 496.54 467.47 510.1 417.8 459.67"/>
            <polygon class="illu-small1-cls-43" points="433.38 401.05 430.82 396.17 468.53 372.88 473.95 383.19 433.38 401.05"/>
            <polygon class="illu-small1-cls-37" points="348.45 391.28 344.79 395.4 289.82 350.53 297.57 341.83 348.45 391.28"/>
            <polygon class="illu-small1-cls-35" points="402.51 475.58 407.81 474.08 419.51 504.22 408.3 507.38 402.51 475.58"/>
        </g>
        <circle class="illu-small1-cls-42 illu-small1-lights-shine-base" cx="386.69" cy="425.43" r="71.43"/>
        <g class="illu-small1-core">
            <circle class="illu-small1-cls-31" cx="386.69" cy="425.61" r="57.27"/>
            <circle class="illu-small1-cls-44" cx="386.69" cy="425.61" r="54.48"/>
        </g>
        <circle class="illu-small1-cls-28 illu-small1-main-body" cx="386.69" cy="425.43" r="305.31"/>
    </g>
</svg>