<?xml version="1.0" encoding="UTF-8"?>
<svg id="IllustrationSmall2" xmlns="http://www.w3.org/2000/svg" xmlns:xlink="http://www.w3.org/1999/xlink" viewBox="0 0 733 998">
    <defs>
        <style>
            .illu-small2-cls-1{fill:url(#Illu_small2_Unbenannter_Verlauf_14-10);}
            .illu-small2-cls-2{fill:url(#Illu_small2_Unbenannter_Verlauf_14-4);}
            .illu-small2-cls-3{fill:url(#Illu_small2_Unbenannter_Verlauf_14-2);}
            .illu-small2-cls-4{fill:url(#Illu_small2_Unbenannter_Verlauf_14-8);}
            .illu-small2-cls-5{fill:url(#Illu_small2_Unbenannter_Verlauf_14-3);}
            .illu-small2-cls-6{fill:url(#Illu_small2_Unbenannter_Verlauf_14-5);}
            .illu-small2-cls-7{fill:url(#Illu_small2_Unbenannter_Verlauf_14-6);}
            .illu-small2-cls-8{fill:url(#Illu_small2_Unbenannter_Verlauf_14-7);}
            .illu-small2-cls-9{fill:url(#Illu_small2_Unbenannter_Verlauf_14-9);}
            .illu-small2-cls-10{fill:#f4bc08;}
            .illu-small2-cls-11,
            .illu-small2-cls-12{fill:#f8cd2c;}
            .illu-small2-cls-13{fill:#f7cbed;}
            .illu-small2-cls-14{fill:#f28ce4;}
            .illu-small2-cls-15,
            .illu-small2-cls-16{fill:#ed2e72;}
            .illu-small2-cls-17,
            .illu-small2-cls-18{fill:#fc95c4;}
            .illu-small2-cls-19{fill:#ea60dd;}
            .illu-small2-cls-20,
            .illu-small2-cls-21,
            .illu-small2-cls-22{fill:#fff;}
            .illu-small2-cls-23{fill:#ffe183;}
            .illu-small2-cls-24{fill:#f45665;}
            .illu-small2-cls-25,
            .illu-small2-cls-26{fill:#e83945;}
            .illu-small2-cls-27,
            .illu-small2-cls-28{fill:#ed5d97;}
            .illu-small2-cls-29,
            .illu-small2-cls-30{fill:#ee7016;}
            .illu-small2-cls-31{fill:#fce9a5;}
            .illu-small2-cls-32,
            .illu-small2-cls-33{fill:#fdeaa6;}
            .illu-small2-cls-34,
            .illu-small2-cls-35{fill:#9b0047;}
            .illu-small2-cls-36{fill:#6d0361;}
            .illu-small2-cls-37,
            .illu-small2-cls-38{fill:#911d7e;}
            .illu-small2-cls-39{fill:#a83d9b;}
            .illu-small2-cls-40,
            .illu-small2-cls-41{fill:#ce0b5a;}
            .illu-small2-cls-42{fill:#e25b00;}
            .illu-small2-cls-43{fill:#db0e21;}
            .illu-small2-cls-44{fill:#130834;}
            .illu-small2-cls-45{fill:url(#Illu_small2_Unbenannter_Verlauf_14);}
            .illu-small2-cls-12,
            .illu-small2-cls-46,
            .illu-small2-cls-41,
            .illu-small2-cls-38,
            .illu-small2-cls-35,
            .illu-small2-cls-33,
            .illu-small2-cls-18,
            .illu-small2-cls-28,
            .illu-small2-cls-30,
            .illu-small2-cls-26,
            .illu-small2-cls-16{opacity:.5;}
            .illu-small2-cls-46{fill:#27155c;}
            .illu-small2-cls-21{opacity:.8;}
            .illu-small2-cls-47{fill:#190a46;opacity:.75;}
            .illu-small2-cls-22{opacity:.45;}
        </style>
        <radialGradient id="Illu_small2_Unbenannter_Verlauf_14" cx="16861.81" cy="740.08" fx="16861.81" fy="740.08" r="9.21" gradientTransform="translate(17273.96) rotate(-180) scale(1 -1)" gradientUnits="userSpaceOnUse">
            <stop offset="0" stop-color="#fcea0d"/>
            <stop offset="0" stop-color="#fff" stop-opacity=".94"/>
            <stop offset="1" stop-color="#fff" stop-opacity="0"/>
        </radialGradient>
        <radialGradient id="Illu_small2_Unbenannter_Verlauf_14-2" cx="17026.59" cy="786.05" fx="17026.59" fy="786.05" r="14.9" xlink:href="#Illu_small2_Unbenannter_Verlauf_14"/>
        <radialGradient id="Illu_small2_Unbenannter_Verlauf_14-3" cx="16770.4" cy="678.86" fx="16770.4" fy="678.86" r="9.21" xlink:href="#Illu_small2_Unbenannter_Verlauf_14"/>
        <radialGradient id="Illu_small2_Unbenannter_Verlauf_14-4" cx="17083.49" cy="601.6" fx="17083.49" fy="601.6" r="18.9" xlink:href="#Illu_small2_Unbenannter_Verlauf_14"/>
        <radialGradient id="Illu_small2_Unbenannter_Verlauf_14-5" cx="16769.18" cy="804.95" fx="16769.18" fy="804.95" r="18.9" xlink:href="#Illu_small2_Unbenannter_Verlauf_14"/>
        <radialGradient id="Illu_small2_Unbenannter_Verlauf_14-6" cx="1629.98" cy="307.83" fx="1629.98" fy="307.83" r="6.16" gradientTransform="translate(-1209.57)" xlink:href="#Illu_small2_Unbenannter_Verlauf_14"/>
        <radialGradient id="Illu_small2_Unbenannter_Verlauf_14-7" cx="1740.12" cy="338.56" fx="1740.12" fy="338.56" r="9.96" gradientTransform="translate(-1209.57)" xlink:href="#Illu_small2_Unbenannter_Verlauf_14"/>
        <radialGradient id="Illu_small2_Unbenannter_Verlauf_14-8" cx="1568.88" cy="266.92" fx="1568.88" fy="266.92" r="6.16" gradientTransform="translate(-1209.57)" xlink:href="#Illu_small2_Unbenannter_Verlauf_14"/>
        <radialGradient id="Illu_small2_Unbenannter_Verlauf_14-9" cx="1778.15" cy="215.28" fx="1778.15" fy="215.28" r="12.63" gradientTransform="translate(-1209.57)" xlink:href="#Illu_small2_Unbenannter_Verlauf_14"/>
        <radialGradient id="Illu_small2_Unbenannter_Verlauf_14-10" cx="1568.07" cy="351.19" fx="1568.07" fy="351.19" r="12.63" gradientTransform="translate(-1209.57)" xlink:href="#Illu_small2_Unbenannter_Verlauf_14"/>
    </defs>
    <g id="illustration_small2">
        <g class="illu-small2-bg">
            <rect class="illu-small2-cls-44" width="733" height="998"/>
            <path class="illu-small2-cls-47" d="m732.99,483.47c-137.61-136.72-335.5-222.47-555.42-222.47-59.74,0-117.85,6.33-173.58,18.29v718.71h728.99V483.47Z"/>
            <path class="illu-small2-cls-46" d="m733,807.11c-137.08-168.68-357.37-278.08-605.77-278.08-41.97,0-83.13,3.12-123.23,9.13v459.85h728.99v-190.89Z"/>
        </g>
        <g class="illu-small2-black-hole-orbits">
            <ellipse class="illu-small2-cls-38" cx="361.99" cy="729.78" rx="110.75" ry="345.85" transform="translate(-450.44 789.47) rotate(-67.82)"/>
            <ellipse class="illu-small2-cls-26" cx="362" cy="729.72" rx="82.35" ry="257.16" transform="translate(-450.39 789.44) rotate(-67.82)"/>
            <ellipse class="illu-small2-cls-30" cx="362" cy="729.75" rx="62.67" ry="195.71" transform="translate(-450.41 789.46) rotate(-67.82)"/>
            <ellipse class="illu-small2-cls-12" cx="361.99" cy="729.75" rx="50.23" ry="156.86" transform="translate(-450.41 789.45) rotate(-67.82)"/>
            <ellipse class="illu-small2-cls-33" cx="361.99" cy="729.75" rx="36.69" ry="114.57" transform="translate(-450.42 789.45) rotate(-67.82)"/>
            <path class="illu-small2-cls-23" d="m274.69,677.4c.11,0,.22,0,.33-.02,2.56-.36,5.37-.58,8.36-.66,1.29-.04,2.31-1.11,2.28-2.4-.04-1.29-1.12-2.31-2.4-2.28-3.17.09-6.16.32-8.89.7-1.28.18-2.17,1.36-1.99,2.64.16,1.17,1.17,2.02,2.32,2.02Z"/>
            <path class="illu-small2-cls-23" d="m254.71,698.05c.21,0,.43-.03.65-.09,1.24-.36,1.96-1.65,1.61-2.9-.87-3.05-.84-5.78.11-8.09.3-.75.71-1.47,1.2-2.13.77-1.04.55-2.51-.5-3.27-1.04-.77-2.51-.55-3.27.5-.72.98-1.32,2.04-1.77,3.15-1.35,3.31-1.44,7.06-.27,11.15.29,1.03,1.23,1.7,2.25,1.7Z"/>
            <path class="illu-small2-cls-23" d="m275.62,724.66c.67,0,1.33-.28,1.79-.83.83-.99.71-2.46-.28-3.3-7.22-6.1-12.68-11.94-16.24-17.35-.71-1.08-2.16-1.38-3.24-.67-1.08.71-1.38,2.16-.67,3.24,3.81,5.78,9.57,11.96,17.13,18.35.44.37.98.55,1.51.55Z"/>
            <path class="illu-small2-cls-23" d="m326.83,756.63c.87,0,1.71-.49,2.11-1.32.56-1.16.07-2.56-1.09-3.13-3.02-1.46-6.03-2.97-8.94-4.49-1.15-.6-2.56-.15-3.16.99-.6,1.15-.15,2.56.99,3.16,2.96,1.54,6.01,3.07,9.07,4.55.33.16.68.23,1.02.23Z"/>
            <path class="illu-small2-cls-23" d="m425.45,786.23c1.21,0,2.23-.93,2.33-2.15.11-1.29-.85-2.42-2.14-2.53-7.35-.61-15.4-1.82-23.92-3.62-1.27-.27-2.51.54-2.77,1.81-.27,1.27.54,2.51,1.81,2.77,8.71,1.83,16.96,3.08,24.5,3.7.07,0,.13,0,.2,0Z"/>
            <path class="illu-small2-cls-23" d="m441.17,786.55s.09,0,.13,0c2.36-.13,4.63-.35,6.72-.66,1.28-.19,2.16-1.38,1.98-2.66-.19-1.28-1.37-2.17-2.66-1.98-1.96.29-4.07.49-6.3.62-1.29.07-2.28,1.18-2.21,2.47.07,1.25,1.1,2.21,2.34,2.21Z"/>
            <path class="illu-small2-cls-23" d="m464.83,759.51c.38,0,.77-.09,1.12-.29,1.13-.62,1.55-2.04.93-3.18-2.43-4.43-6.13-9.18-11-14.1-.91-.92-2.39-.93-3.31-.02-.92.91-.93,2.39-.02,3.31,4.57,4.61,8,9,10.22,13.06.43.78,1.23,1.22,2.06,1.22Z"/>
            <path class="illu-small2-cls-23" d="m412.67,715.86c.82,0,1.61-.43,2.04-1.19.63-1.13.23-2.55-.89-3.19-7.27-4.09-15.02-8.04-23.03-11.74-1.17-.54-2.57-.03-3.11,1.14-.54,1.17-.03,2.57,1.14,3.11,7.9,3.65,15.53,7.54,22.7,11.57.36.2.76.3,1.15.3Z"/>
            <path class="illu-small2-cls-10" d="m387.85,688.46c.91,0,1.77-.53,2.15-1.42.51-1.19-.04-2.56-1.23-3.07-2.61-1.12-5.28-2.23-7.93-3.31-11.95-4.87-24.02-9.26-35.88-13.03-1.23-.39-2.55.29-2.94,1.52-.39,1.23.29,2.55,1.52,2.94,11.74,3.73,23.7,8.07,35.53,12.9,2.62,1.07,5.26,2.17,7.85,3.28.3.13.61.19.92.19Z"/>
            <path class="illu-small2-cls-10" d="m299.74,660.77c1.1,0,2.08-.78,2.3-1.9.24-1.27-.59-2.5-1.86-2.74-12.31-2.34-23.81-3.78-34.16-4.26-1.29-.06-2.39.94-2.45,2.23s.94,2.39,2.23,2.45c10.14.47,21.41,1.88,33.51,4.18.15.03.3.04.44.04Z"/>
            <path class="illu-small2-cls-10" d="m229.55,708.14c.56,0,1.12-.2,1.57-.61.96-.87,1.03-2.35.16-3.31-7.1-7.84-11.64-15.05-13.51-21.44-.36-1.24-1.66-1.95-2.9-1.59-1.24.36-1.95,1.66-1.59,2.9,2.07,7.08,6.96,14.91,14.53,23.27.46.51,1.1.77,1.74.77Z"/>
            <path class="illu-small2-cls-10" d="m296.4,756.73c.83,0,1.64-.44,2.06-1.23.61-1.14.19-2.56-.95-3.17-6.46-3.49-12.74-7.1-18.65-10.74-1.1-.68-2.54-.33-3.22.77-.68,1.1-.33,2.54.77,3.22,5.99,3.68,12.35,7.34,18.88,10.87.35.19.73.28,1.11.28Z"/>
            <path class="illu-small2-cls-10" d="m367.28,787.69c.97,0,1.88-.61,2.21-1.58.42-1.22-.23-2.55-1.45-2.98-8.34-2.87-16.79-6.05-25.14-9.46-2.26-.92-4.54-1.87-6.79-2.83-1.19-.51-2.56.05-3.07,1.24-.51,1.19.05,2.56,1.24,3.07,2.27.96,4.57,1.92,6.85,2.85,8.42,3.43,16.96,6.65,25.38,9.55.25.09.51.13.76.13Z"/>
            <path class="illu-small2-cls-10" d="m428.94,803.79c1.12,0,2.12-.81,2.31-1.96.21-1.28-.65-2.48-1.92-2.7-13.58-2.27-28.11-5.7-43.18-10.19-1.24-.37-2.54.34-2.91,1.58s.34,2.54,1.58,2.91c15.26,4.54,29.98,8.01,43.75,10.32.13.02.26.03.39.03Z"/>
            <path class="illu-small2-cls-10" d="m496.21,801.06c.36,0,.73-.09,1.08-.27,5.48-2.85,9.22-6.67,11.12-11.34,4.18-10.24-.92-23.62-14.73-38.68-.87-.95-2.36-1.02-3.31-.14-.95.87-1.02,2.35-.14,3.31,12.5,13.64,17.29,25.31,13.85,33.75-1.47,3.61-4.48,6.63-8.95,8.96-1.15.6-1.59,2.01-.99,3.16.42.8,1.23,1.26,2.08,1.26Z"/>
            <path class="illu-small2-cls-42" d="m343.55,659.37c1.32,0,2.54-.84,2.97-2.16.53-1.64-.36-3.4-2-3.93-8.8-2.86-17.61-5.48-26.19-7.8-1.67-.45-3.38.54-3.83,2.2s.54,3.38,2.2,3.83c8.48,2.29,17.19,4.88,25.89,7.71.32.1.65.15.97.15Z"/>
            <path class="illu-small2-cls-42" d="m282.66,643.64c1.48,0,2.79-1.05,3.07-2.55.31-1.7-.81-3.32-2.5-3.64-20.11-3.72-38.19-5.46-53.74-5.15-1.72.03-3.09,1.46-3.06,3.18.03,1.72,1.45,3.08,3.18,3.06,15.13-.3,32.78,1.4,52.48,5.05.19.04.38.05.57.05Z"/>
            <path class="illu-small2-cls-42" d="m199.79,706.09c.78,0,1.55-.29,2.16-.87,1.25-1.19,1.29-3.17.1-4.41-16.91-17.68-23.79-33.37-19.38-44.18.65-1.6-.12-3.42-1.71-4.07-1.6-.65-3.42.12-4.07,1.71-5.47,13.42,1.67,31,20.65,50.85.61.64,1.43.96,2.26.96Z"/>
            <path class="illu-small2-cls-42" d="m356.01,797.76c1.27,0,2.46-.78,2.93-2.04.6-1.62-.23-3.41-1.84-4.01-6.17-2.28-12.41-4.71-18.57-7.22-10.95-4.47-21.79-9.25-32.21-14.23-1.56-.74-3.42-.08-4.16,1.47-.74,1.56-.08,3.42,1.47,4.16,10.53,5.03,21.48,9.87,32.54,14.38,6.22,2.54,12.53,4.99,18.76,7.3.36.13.72.19,1.08.19Z"/>
            <path class="illu-small2-cls-42" d="m489.06,826.41c7.63,0,14.62-.47,20.84-1.4,1.71-.26,2.88-1.85,2.62-3.55-.26-1.7-1.85-2.88-3.55-2.62-15.18,2.28-35.29,1.63-58.16-1.88-1.7-.26-3.3.91-3.56,2.61s.91,3.3,2.61,3.56c14.23,2.19,27.46,3.29,39.19,3.29Z"/>
            <path class="illu-small2-cls-42" d="m535.27,815.42c.69,0,1.38-.23,1.95-.69,3.64-2.93,6.29-6.4,7.9-10.33,2.05-5.03,2.34-10.7.86-16.86-.4-1.68-2.09-2.71-3.77-2.31-1.68.4-2.71,2.09-2.31,3.77,1.17,4.86.98,9.25-.57,13.04-1.2,2.93-3.22,5.56-6.03,7.82-1.34,1.08-1.56,3.05-.48,4.39.62.77,1.52,1.17,2.43,1.17Z"/>
            <path class="illu-small2-cls-42" d="m509.44,746.71c.87,0,1.74-.36,2.36-1.07,1.13-1.3,1-3.27-.3-4.4-5.64-4.91-11.94-9.92-18.72-14.88-1.39-1.02-3.35-.71-4.36.68-1.02,1.39-.71,3.34.68,4.36,6.64,4.86,12.8,9.75,18.31,14.55.59.51,1.32.77,2.05.77Z"/>
            <path class="illu-small2-cls-43" d="m374.84,649.38c1.26,0,2.44-.77,2.92-2.01.61-1.61-.19-3.41-1.8-4.03-11.27-4.3-22.67-8.35-33.87-12.04-1.64-.54-3.4.35-3.94,1.99-.54,1.64.35,3.4,1.99,3.94,11.11,3.66,22.42,7.68,33.6,11.95.37.14.74.21,1.11.21Z"/>
            <path class="illu-small2-cls-43" d="m267.29,617.52c1.45,0,2.75-1.02,3.06-2.5.34-1.69-.75-3.34-2.44-3.68-8.62-1.76-17.12-3.27-25.27-4.49-1.71-.25-3.29.92-3.55,2.62-.26,1.71.92,3.29,2.62,3.55,8.04,1.21,16.44,2.7,24.96,4.44.21.04.42.06.63.06Z"/>
            <path class="illu-small2-cls-43" d="m199.78,739.8c.99,0,1.96-.47,2.57-1.34.98-1.42.63-3.36-.79-4.34-3.72-2.58-7.37-5.19-10.87-7.77-1.39-1.02-3.34-.73-4.37.66-1.02,1.39-.73,3.34.66,4.37,3.54,2.62,7.25,5.27,11.02,7.88.54.38,1.16.56,1.78.56Z"/>
            <path class="illu-small2-cls-43" d="m247.98,769.61c1.1,0,2.16-.58,2.73-1.61.84-1.51.29-3.41-1.21-4.25-9.4-5.22-18.56-10.61-27.21-16.02-1.46-.91-3.39-.47-4.3.99-.91,1.46-.47,3.39.99,4.3,8.74,5.46,17.99,10.9,27.48,16.18.48.27,1,.39,1.51.39Z"/>
            <path class="illu-small2-cls-43" d="m419.46,839.02c1.38,0,2.64-.92,3.01-2.32.45-1.67-.54-3.38-2.21-3.82-13.6-3.64-27.59-7.86-41.59-12.54-1.64-.55-3.4.33-3.95,1.97-.55,1.63.33,3.4,1.97,3.95,14.12,4.72,28.24,8.98,41.96,12.65.27.07.54.11.81.11Z"/>
            <path class="illu-small2-cls-43" d="m484.06,852.43c1.53,0,2.87-1.13,3.09-2.69.24-1.71-.95-3.29-2.66-3.53-4.57-.64-9.28-1.38-14.03-2.2-1.7-.29-3.31.85-3.61,2.55-.29,1.7.85,3.31,2.55,3.61,4.81.83,9.59,1.58,14.22,2.23.15.02.29.03.44.03Z"/>
            <path class="illu-small2-cls-43" d="m561.17,853.2c.2,0,.4-.02.59-.06,14.23-2.75,25.09-7.53,32.28-14.22,1.26-1.17,1.33-3.15.16-4.41-1.17-1.26-3.15-1.33-4.41-.16-6.32,5.88-16.15,10.14-29.21,12.66-1.69.33-2.8,1.96-2.47,3.66.29,1.49,1.6,2.53,3.06,2.53Z"/>
            <path class="illu-small2-cls-43" d="m561.18,755.74c.85,0,1.69-.34,2.31-1.02,1.16-1.27,1.07-3.25-.2-4.41-8.08-7.37-17.29-14.91-27.4-22.41-1.38-1.03-3.34-.74-4.37.65-1.03,1.38-.74,3.34.65,4.37,9.93,7.37,18.99,14.77,26.91,22,.6.55,1.35.82,2.1.82Z"/>
            <path class="illu-small2-cls-43" d="m478.17,697.59c1.09,0,2.15-.57,2.72-1.59.85-1.5.32-3.41-1.18-4.25-6.61-3.74-13.48-7.46-20.41-11.08-1.53-.8-3.41-.2-4.21,1.32-.8,1.53-.2,3.41,1.32,4.21,6.87,3.58,13.67,7.27,20.22,10.98.49.27,1.01.4,1.53.4Z"/>
            <path class="illu-small2-cls-36" d="m576.55,898.36c1.68,0,3.07-1.33,3.12-3.02.05-1.72-1.3-3.16-3.02-3.22-7.33-.23-15.05-.69-22.95-1.38-1.72-.15-3.23,1.12-3.38,2.84-.15,1.72,1.12,3.23,2.84,3.38,8.01.7,15.85,1.17,23.3,1.4.03,0,.07,0,.1,0Z"/>
            <path class="illu-small2-cls-36" d="m599.12,898.29s.08,0,.13,0c3.22-.13,6.41-.32,9.47-.55,1.72-.13,3-1.63,2.87-3.35-.13-1.72-1.63-3.01-3.35-2.87-2.99.23-6.1.41-9.24.54-1.72.07-3.06,1.52-2.99,3.24.07,1.68,1.45,3,3.12,3Z"/>
            <path class="illu-small2-cls-36" d="m591.6,732.42c.96,0,1.91-.44,2.52-1.27,1.02-1.39.72-3.34-.67-4.36-4.91-3.61-10.04-7.26-15.26-10.85-1.42-.98-3.36-.62-4.34.8-.98,1.42-.62,3.36.8,4.34,5.16,3.56,10.25,7.17,15.1,10.74.56.41,1.2.61,1.85.61Z"/>
            <path class="illu-small2-cls-36" d="m491.91,671.15c1.13,0,2.21-.61,2.77-1.68.8-1.53.21-3.41-1.32-4.21-18.29-9.55-37.48-18.82-57.03-27.53-1.57-.7-3.42,0-4.12,1.58-.7,1.57,0,3.42,1.58,4.12,19.43,8.66,38.5,17.87,56.68,27.36.46.24.96.36,1.44.36Z"/>
            <path class="illu-small2-cls-36" d="m314.02,598.23c1.34,0,2.57-.86,2.98-2.21.5-1.65-.42-3.39-2.07-3.9-6.91-2.12-13.88-4.16-20.72-6.08-1.66-.47-3.38.5-3.85,2.16-.47,1.66.5,3.38,2.16,3.85,6.79,1.91,13.71,3.94,20.58,6.04.3.09.61.14.91.14Z"/>
            <path class="illu-small2-cls-36" d="m260.41,583.58c1.41,0,2.69-.96,3.03-2.4.4-1.68-.63-3.36-2.31-3.76-28.68-6.86-55.94-11.74-81.03-14.52-1.71-.19-3.26,1.05-3.45,2.76-.19,1.71,1.05,3.26,2.76,3.45,24.83,2.75,51.84,7.59,80.27,14.39.24.06.49.09.73.09Z"/>
            <path class="illu-small2-cls-36" d="m219.95,788.47c1.11,0,2.19-.6,2.75-1.64.82-1.52.25-3.41-1.27-4.23-8.06-4.34-16.06-8.79-23.76-13.25-1.49-.86-3.4-.35-4.26,1.14-.86,1.49-.35,3.4,1.14,4.26,7.76,4.49,15.81,8.97,23.93,13.34.47.25.98.37,1.48.37Z"/>
            <path class="illu-small2-cls-36" d="m410.74,867.6c1.34,0,2.58-.87,2.99-2.22.5-1.65-.43-3.39-2.08-3.89-30.09-9.11-60.8-20.03-91.29-32.46-1.6-.65-3.42.12-4.07,1.71-.65,1.6.12,3.42,1.71,4.07,30.66,12.5,61.56,23.49,91.83,32.65.3.09.61.13.91.13Z"/>
            <path class="illu-small2-cls-36" d="m459.52,880.91c1.41,0,2.69-.96,3.03-2.39.41-1.68-.62-3.36-2.3-3.77-3.89-.94-7.85-1.93-11.8-2.94-1.67-.43-3.37.58-3.8,2.25-.43,1.67.58,3.37,2.25,3.8,3.97,1.02,7.97,2.02,11.88,2.97.25.06.49.09.74.09Z"/>
        </g>
        <g class="illu-small2-black-hole-particles-purple">
            <circle class="illu-small2-cls-39" cx="242.44" cy="770.4" r="4.93"/>
            <circle class="illu-small2-cls-39" cx="174.63" cy="619.36" r="4.93"/>
            <circle class="illu-small2-cls-39" cx="486.09" cy="686.19" r="4.93"/>
        </g>
        <g class="illu-small2-black-hole-particles-orange">
            <circle class="illu-small2-cls-29" cx="407.22" cy="875.68" r="4.93"/>
            <circle class="illu-small2-cls-29" cx="656.43" cy="789.22" r="4.93"/>
            <circle class="illu-small2-cls-29" cx="225.03" cy="792.36" r="4.93"/>
            <circle class="illu-small2-cls-29" cx="248.39" cy="675.53" r="4.93"/>
            <circle class="illu-small2-cls-29" cx="417.08" cy="631.17" r="4.93"/>
            <circle class="illu-small2-cls-29" cx="532.35" cy="807.66" r="4.93"/>
        </g>
        <g class="illu-small2-black-hole-particles-red">
            <circle class="illu-small2-cls-24" cx="677.38" cy="808.19" r="4.93"/>
            <circle class="illu-small2-cls-24" cx="427.92" cy="855.13" r="4.93"/>
            <circle class="illu-small2-cls-24" cx="465.17" cy="875.68" r="4.93"/>
            <circle class="illu-small2-cls-24" cx="213.93" cy="752.84" r="4.93"/>
            <circle class="illu-small2-cls-24" cx="190.47" cy="797.29" r="4.93"/>
            <circle class="illu-small2-cls-24" cx="146.88" cy="604.48" r="4.93"/>
            <circle class="illu-small2-cls-24" cx="192.89" cy="680.46" r="4.93"/>
            <circle class="illu-small2-cls-24" cx="200.14" cy="577.78" r="4.93"/>
            <circle class="illu-small2-cls-24" cx="227.72" cy="579.94" r="4.93"/>
            <circle class="illu-small2-cls-24" cx="455.32" cy="678.86" r="4.93"/>
            <circle class="illu-small2-cls-24" cx="532.35" cy="826.49" r="4.93"/>
            <circle class="illu-small2-cls-24" cx="407.22" cy="604.48" r="4.93"/>
            <circle class="illu-small2-cls-24" cx="445.28" cy="624.28" r="4.93"/>
        </g>
        <g class="illu-small2-black-hole-stars">
            <path class="illu-small2-cls-20" d="m404.16,740.08l2.57.72c2.27.64,4.05,2.42,4.69,4.69l.72,2.57.73-2.58c.64-2.27,2.41-4.04,4.68-4.68l2.58-.73-2.57-.72c-2.27-.64-4.05-2.42-4.69-4.69l-.72-2.57-.73,2.58c-.64,2.27-2.41,4.04-4.68,4.68l-2.58.73Z"/>
            <circle class="illu-small2-cls-45" cx="412.15" cy="740.08" r="9.21"/>
            <path class="illu-small2-cls-20" d="m235.85,786.05l3.71,1.04c3.28.92,5.84,3.48,6.76,6.76l1.04,3.71,1.05-3.71c.92-3.27,3.48-5.83,6.75-6.75l3.71-1.05-3.71-1.04c-3.28-.92-5.84-3.48-6.76-6.76l-1.04-3.71-1.05,3.71c-.92,3.27-3.48,5.83-6.75,6.75l-3.71,1.05Z"/>
            <circle class="illu-small2-cls-3" cx="247.37" cy="786.05" r="14.9"/>
            <path class="illu-small2-cls-20" d="m495.58,678.86l2.57.72c2.27.64,4.05,2.42,4.69,4.69l.72,2.57.73-2.58c.64-2.27,2.41-4.04,4.68-4.68l2.58-.73-2.57-.72c-2.27-.64-4.05-2.42-4.69-4.69l-.72-2.57-.73,2.58c-.64,2.27-2.41,4.04-4.68,4.68l-2.58.73Z"/>
            <circle class="illu-small2-cls-5" cx="503.57" cy="678.86" r="9.21"/>
            <path class="illu-small2-cls-20" d="m174.4,601.6l5.18,1.46c4.58,1.29,8.15,4.86,9.44,9.44l1.46,5.18,1.46-5.19c1.29-4.57,4.86-8.14,9.43-9.43l5.19-1.46-5.18-1.46c-4.58-1.29-8.15-4.86-9.44-9.44l-1.46-5.18-1.46,5.19c-1.29,4.57-4.86,8.14-9.43,9.43l-5.19,1.46Z"/>
            <circle class="illu-small2-cls-2" cx="190.47" cy="601.6" r="18.9"/>
            <path class="illu-small2-cls-20" d="m488.7,804.95l5.18,1.46c4.58,1.29,8.15,4.86,9.44,9.44l1.46,5.18,1.46-5.19c1.29-4.57,4.86-8.14,9.43-9.43l5.19-1.46-5.18-1.46c-4.58-1.29-8.15-4.86-9.44-9.44l-1.46-5.18-1.46,5.19c-1.29,4.57-4.86,8.14-9.43,9.43l-5.19,1.46Z"/>
            <circle class="illu-small2-cls-6" cx="504.78" cy="804.95" r="18.9"/>
        </g>
        <g class="illu-small2-black-hole-center">
            <path class="illu-small2-cls-20" d="m382.09,691.2s9.22,4.87,15.13,13.05,7.57,17.47,10.26,21.55c4.33,6.57,10.24,9.6,16.08,14.39,9.2,7.54,10.94,12.39,11.2,15.76s-1.83,8.93-14.23,10.1-28.05-1.69-36.81-3.83-26.36-7.92-37.66-12.79c-11.3-4.87-22.01-9.54-33.89-17.59s-18.11-13.57-22.2-20.26-1.4-11.36,2.86-13.83,12.92-3.38,22.79-2.14,17.6-1.65,23.76-4.61,23.66-9.8,42.72.19Z"/>
            <path class="illu-small2-cls-11" d="m383.94,761.28c-8.69-2.12-26.22-7.88-37.5-12.74-10.67-4.6-21.69-9.35-33.73-17.51-12.09-8.19-18.03-13.6-21.92-19.96-1.67-2.73-2.24-5.24-1.68-7.44.64-2.53,2.63-4.14,4.19-5.05,2.81-1.63,7.84-2.56,13.79-2.56,2.68,0,5.5.18,8.39.54,1.59.2,3.2.3,4.78.3,8.1,0,14.69-2.67,19.53-5,4.71-2.27,12.22-4.97,21.24-4.97,7.17,0,14.1,1.73,20.61,5.14.09.05,9.1,4.88,14.79,12.76,3.53,4.89,5.54,10.25,7.15,14.56,1.06,2.83,1.98,5.28,3.08,6.96,3.22,4.89,7.23,7.83,11.47,10.94,1.57,1.15,3.2,2.35,4.8,3.66,9.27,7.6,10.63,12.25,10.85,15.09.1,1.32-.18,3.28-2.07,5.11-2.19,2.1-6.09,3.47-11.28,3.96-1.88.18-3.93.27-6.08.27-12.75,0-26.5-3.12-30.41-4.07Zm-43.31-67.66c-5.02,2.42-11.88,5.19-20.37,5.19-1.66,0-3.34-.11-5.02-.32-2.81-.35-5.55-.53-8.15-.53-5.63,0-10.3.84-12.82,2.3-1.24.72-2.81,1.97-3.29,3.85-.43,1.68.06,3.68,1.45,5.95,3.73,6.1,9.52,11.35,21.36,19.37,11.89,8.05,22.83,12.77,33.41,17.33,11.19,4.82,28.58,10.53,37.2,12.64,3.86.94,17.41,4.02,29.95,4.02,2.09,0,4.08-.09,5.9-.26,4.75-.45,8.25-1.63,10.12-3.43,1.35-1.3,1.55-2.65,1.48-3.56-.19-2.49-1.45-6.61-10.15-13.74-1.56-1.28-3.17-2.46-4.73-3.6-4.39-3.22-8.53-6.25-11.94-11.44-1.23-1.86-2.18-4.4-3.28-7.35-1.57-4.2-3.53-9.43-6.91-14.1-5.4-7.48-14.05-12.14-14.13-12.18-6.22-3.26-12.85-4.92-19.71-4.92-8.66,0-15.87,2.6-20.4,4.77Z"/>
            <path class="illu-small2-cls-31" d="m384.4,759.4c-8.61-2.1-26-7.81-37.2-12.64-10.58-4.56-21.52-9.28-33.41-17.33-11.84-8.02-17.63-13.27-21.36-19.37-1.39-2.27-1.88-4.27-1.45-5.95.48-1.88,2.05-3.13,3.29-3.85,2.49-1.44,7.28-2.3,12.82-2.3,2.6,0,5.34.18,8.15.53,1.67.21,3.36.32,5.02.32,8.49,0,15.34-2.77,20.37-5.19,4.53-2.18,11.74-4.77,20.4-4.77,6.85,0,13.48,1.65,19.71,4.92.09.05,8.69,4.65,14.13,12.18,3.38,4.68,5.33,9.9,6.91,14.11,1.1,2.94,2.05,5.48,3.28,7.34,3.41,5.18,7.75,8.36,11.94,11.44,1.55,1.14,3.16,2.32,4.73,3.6,9.7,7.95,10.04,12.31,10.15,13.74.28,3.66-4.06,6.28-11.61,6.99-1.82.17-3.8.26-5.9.26-12.54,0-26.09-3.08-29.95-4.02Zm-42.93-64.03c-5.21,2.51-12.33,5.38-21.21,5.38-1.74,0-3.5-.11-5.26-.33-2.73-.34-5.39-.51-7.91-.51-5.14,0-9.68.78-11.85,2.04-.91.53-2.07,1.42-2.38,2.65-.29,1.15.12,2.66,1.23,4.46,3.57,5.84,9.2,10.92,20.79,18.77,11.73,7.95,22.59,12.63,33.09,17.16,11.1,4.79,28.35,10.45,36.89,12.53,3.8.93,17.17,3.96,29.49,3.96,2.03,0,3.96-.08,5.72-.25,6.08-.57,10.04-2.55,9.86-4.91-.05-.62-.14-1.78-1.29-3.73-1.5-2.54-4.24-5.45-8.16-8.66-1.52-1.25-3.11-2.41-4.64-3.54-4.33-3.18-8.81-6.46-12.41-11.93-1.35-2.04-2.33-4.68-3.48-7.73-1.53-4.09-3.44-9.18-6.66-13.65-5.16-7.14-13.38-11.56-13.46-11.6-5.94-3.12-12.27-4.7-18.8-4.7-8.29,0-15.21,2.49-19.56,4.58Z"/>
            <path class="illu-small2-cls-32" d="m394.25,715s-3.31-11.95-13.12-17.28-18.16-6.34-26.89-4.87-16.23,6.49-20.79,10.97-3.4,5.33-6.65,6.57-8.73,1.85-8.73,5.8c0,3.61,2.24,5.72,6.65,9.35s14.53,10.2,30.45,16.77c15.92,6.57,29.14,7.34,30.68,4.64s8.64-26.67,8.41-31.94Z"/>
            <path d="m394.65,745.49s9.58-19.83-4.74-37.38c-14.33-17.55-36.05-15.18-44.21-10.53s-14.71,9.3-18.78,20.59c0,0-1.42,9.2,28.75,22.2,30.17,13,38.99,5.12,38.99,5.12Z"/>
            <path class="illu-small2-cls-29" d="m383.48,763.17c-8.76-2.14-26.44-7.94-37.81-12.84-10.75-4.63-21.86-9.42-34.05-17.68-12.34-8.36-18.44-13.94-22.49-20.55-1.95-3.19-2.59-6.2-1.9-8.93.64-2.52,2.4-4.68,5.1-6.25,4.54-2.63,13.51-3.5,23.39-2.27,9.67,1.21,17.16-1.61,23.22-4.52,3.71-1.78,9.65-4.08,16.87-4.87,9.35-1.03,18.34.68,26.72,5.08h0c.38.2,9.49,5.07,15.46,13.34,3.68,5.1,5.74,10.6,7.39,15.01,1.02,2.72,1.9,5.08,2.89,6.58,3.03,4.6,6.9,7.44,10.99,10.44,1.6,1.17,3.25,2.38,4.89,3.73,9.84,8.07,11.31,13.25,11.55,16.44.11,1.42-.09,4.18-2.66,6.65-2.54,2.44-6.73,3.95-12.44,4.49-2.04.19-4.14.28-6.27.28-12.83,0-26.49-3.06-30.86-4.13Zm-1.84-71.11c-8.03-4.21-16.65-5.85-25.61-4.87-6.96.76-12.67,2.97-16.24,4.69-6.31,3.04-14.14,5.97-24.3,4.7-9.49-1.19-17.99-.41-22.18,2.02-1.56.9-3.55,2.51-4.19,5.05-.56,2.2,0,4.71,1.68,7.44,3.89,6.36,9.83,11.77,21.92,19.96,12.04,8.16,23.07,12.91,33.73,17.51,11.28,4.86,28.82,10.62,37.5,12.74,4.31,1.05,17.79,4.08,30.38,4.08,2.08,0,4.13-.08,6.11-.27,5.27-.5,9.06-1.83,11.28-3.96,2-1.92,2.16-4.02,2.07-5.11-.22-2.84-1.58-7.49-10.85-15.09-1.6-1.31-3.23-2.51-4.81-3.66-4.24-3.11-8.25-6.05-11.47-10.94-1.11-1.68-2.02-4.13-3.08-6.96-1.61-4.31-3.62-9.67-7.15-14.56-5.67-7.84-14.59-12.65-14.79-12.76h0Z"/>
            <path class="illu-small2-cls-25" d="m382.61,766.76c-8.9-2.18-26.86-8.07-38.4-13.04-10.91-4.7-22.18-9.56-34.66-18.02-12.83-8.69-19.22-14.57-23.57-21.68-2.49-4.08-3.28-8.03-2.33-11.77.89-3.51,3.25-6.46,6.83-8.54,4.74-2.75,11.65-3.32,16.62-3.32,2.91,0,5.97.2,9.09.59,1.36.17,2.73.26,4.08.26,6.92,0,12.52-2.25,17.08-4.44,5.24-2.52,13.6-5.52,23.68-5.52,8.09,0,15.91,1.95,23.24,5.8.42.22,10.26,5.48,16.73,14.44,3.97,5.5,6.13,11.26,7.86,15.89.94,2.51,1.75,4.68,2.51,5.83,2.66,4.04,6.1,6.57,10.09,9.49,1.64,1.2,3.33,2.44,5.05,3.85,8.44,6.92,12.42,12.78,12.9,19.02.16,2.08-.12,6.08-3.79,9.61-3.16,3.03-8.09,4.88-14.66,5.5-2.05.19-4.28.29-6.61.29-13.02,0-26.54-2.96-31.75-4.24Zm-44.57-78.53c-4.73,2.27-10.53,4.6-17.77,4.6-1.41,0-2.85-.09-4.27-.27-3.05-.38-6.04-.57-8.89-.57-4.77,0-11.39.54-15.83,3.11-3.2,1.85-5.31,4.47-6.09,7.56-.84,3.3-.11,6.85,2.15,10.55,4.22,6.9,10.48,12.65,23.1,21.2,12.35,8.37,23.56,13.2,34.4,17.87,11.46,4.94,29.3,10.79,38.14,12.95,5.15,1.26,18.53,4.19,31.37,4.19,2.28,0,4.46-.1,6.46-.28,6.2-.58,10.81-2.29,13.71-5.07,3.2-3.07,3.45-6.54,3.31-8.34-.44-5.77-4.24-11.29-12.32-17.91-1.69-1.38-3.36-2.61-4.98-3.8-4.11-3.01-7.66-5.62-10.48-9.9-.86-1.3-1.7-3.55-2.67-6.15-1.7-4.54-3.81-10.18-7.66-15.51-6.26-8.67-15.78-13.76-16.18-13.97-7.1-3.72-14.67-5.61-22.5-5.61-9.78,0-17.9,2.92-22.99,5.37Z"/>
            <path class="illu-small2-cls-37" d="m381.85,769.84c-9.02-2.21-27.22-8.17-38.9-13.21-11.04-4.76-22.46-9.68-35.18-18.3-13.24-8.97-19.88-15.11-24.49-22.66-3.68-6.02-3.5-11.04-2.7-14.2,1.09-4.3,4.04-8.03,8.31-10.5,5.35-3.1,12.85-3.75,18.21-3.75,3.05,0,6.23.21,9.48.61,1.23.15,2.47.23,3.68.23,6.28,0,11.46-2.09,15.71-4.13,5.53-2.66,14.37-5.84,25.06-5.84,8.61,0,16.92,2.07,24.71,6.15h.02c.44.24,10.92,5.84,17.82,15.4,4.22,5.85,6.56,12.08,8.26,16.63.8,2.14,1.63,4.35,2.19,5.21,2.35,3.57,5.42,5.82,9.32,8.68,1.67,1.22,3.4,2.49,5.18,3.95,9.16,7.51,13.5,14.06,14.05,21.23.35,4.55-1.34,8.86-4.76,12.14-3.69,3.54-9.26,5.68-16.55,6.37-2.15.2-4.48.31-6.91.31-13.36,0-27.18-3.03-32.5-4.33Zm-45.5-85.11c-4.33,2.08-9.63,4.21-16.09,4.21-1.25,0-2.52-.08-3.79-.24-3.21-.4-6.36-.6-9.37-.6-5.25,0-12.59.63-17.77,3.63-4.06,2.36-6.87,5.89-7.9,9.96-.76,2.99-.92,7.77,2.6,13.52,4.54,7.42,11.11,13.49,24.24,22.39,12.66,8.58,24.03,13.48,35.04,18.22,11.64,5.02,29.77,10.96,38.76,13.16,5.29,1.29,19.03,4.3,32.29,4.3,2.4,0,4.7-.1,6.82-.3,7.09-.67,12.48-2.73,16.03-6.13,3.22-3.09,4.82-7.15,4.49-11.43-.53-6.91-4.77-13.27-13.73-20.61-1.77-1.45-3.48-2.71-5.15-3.93-3.97-2.91-7.1-5.2-9.53-8.9-.62-.94-1.46-3.2-2.28-5.38-1.69-4.5-3.99-10.67-8.15-16.42-6.78-9.39-17.08-14.9-17.52-15.13h-.02c-7.65-4.02-15.83-6.06-24.3-6.06-10.51,0-19.22,3.13-24.67,5.75Z"/>
        </g>

        <g class="illu-small2-galaxy-orbits">
            <ellipse id="GalaxyFog1" class="illu-small2-cls-35" cx="453.94" cy="300.95" rx="231.16" ry="74.02" transform="translate(-80.03 193.64) rotate(-22.18)"/>
            <ellipse id="GalaxyFog2" class="illu-small2-cls-41" cx="453.93" cy="300.91" rx="171.88" ry="55.04" transform="translate(-80.01 193.64) rotate(-22.18)"/>
            <ellipse id="GalaxyFog3" class="illu-small2-cls-16" cx="453.93" cy="300.93" rx="130.81" ry="41.89" transform="translate(-80.02 193.64) rotate(-22.18)"/>
            <ellipse id="GalaxyFog4" class="illu-small2-cls-28" cx="453.94" cy="300.93" rx="104.84" ry="33.57" transform="translate(-80.02 193.64) rotate(-22.18)"/>
            <ellipse id="GalaxyFog5" class="illu-small2-cls-18" cx="453.94" cy="300.93" rx="76.58" ry="24.52" transform="translate(-80.02 193.64) rotate(-22.18)"/>
            <path class="illu-small2-cls-17" d="m512.28,265.94c-.07,0-.15,0-.22-.02-1.71-.24-3.59-.39-5.59-.44-.86-.02-1.55-.74-1.52-1.61.02-.86.74-1.54,1.61-1.52,2.12.06,4.11.22,5.94.47.86.12,1.45.91,1.33,1.77-.11.78-.78,1.35-1.55,1.35Z"/>
            <path class="illu-small2-cls-17" d="m525.64,279.75c-.14,0-.29-.02-.43-.06-.83-.24-1.31-1.1-1.07-1.94.58-2.04.56-3.86-.07-5.41-.2-.5-.47-.98-.8-1.43-.51-.7-.36-1.68.33-2.19.7-.51,1.68-.36,2.19.33.48.66.88,1.36,1.18,2.1.9,2.21.96,4.72.18,7.45-.2.69-.82,1.13-1.5,1.13Z"/>
            <path class="illu-small2-cls-17" d="m511.66,297.53c-.44,0-.89-.19-1.2-.55-.56-.66-.48-1.65.18-2.21,4.82-4.08,8.48-7.98,10.85-11.6.48-.72,1.45-.92,2.17-.45s.92,1.45.45,2.17c-2.54,3.87-6.4,7.99-11.45,12.27-.29.25-.65.37-1.01.37Z"/>
            <path class="illu-small2-cls-17" d="m477.43,318.9c-.58,0-1.14-.33-1.41-.88-.38-.78-.05-1.71.73-2.09,2.02-.97,4.03-1.98,5.98-3,.77-.4,1.71-.1,2.11.66.4.77.1,1.71-.66,2.11-1.98,1.03-4.02,2.05-6.06,3.04-.22.11-.45.16-.68.16Z"/>
            <path class="illu-small2-cls-17" d="m411.52,338.68c-.81,0-1.49-.62-1.56-1.44-.07-.86.57-1.62,1.43-1.69,4.91-.41,10.29-1.22,15.99-2.42.85-.18,1.68.36,1.85,1.21.18.85-.36,1.68-1.21,1.85-5.82,1.22-11.33,2.06-16.37,2.47-.04,0-.09,0-.13,0Z"/>
            <path class="illu-small2-cls-17" d="m401.02,338.9s-.06,0-.09,0c-1.58-.09-3.09-.23-4.49-.44-.86-.13-1.45-.92-1.32-1.78.13-.86.92-1.45,1.78-1.32,1.31.19,2.73.33,4.21.41.86.05,1.52.79,1.48,1.65-.05.83-.74,1.48-1.56,1.48Z"/>
            <path class="illu-small2-cls-17" d="m385.2,320.83c-.25,0-.51-.06-.75-.19-.76-.41-1.04-1.37-.62-2.12,1.62-2.96,4.09-6.13,7.35-9.43.61-.61,1.6-.62,2.21-.01s.62,1.6.01,2.21c-3.05,3.08-5.35,6.02-6.83,8.73-.28.52-.82.81-1.37.81Z"/>
            <path class="illu-small2-cls-17" d="m420.07,291.65c-.55,0-1.08-.29-1.37-.8-.42-.75-.16-1.71.6-2.13,4.86-2.73,10.04-5.37,15.39-7.85.78-.36,1.71-.02,2.08.76.36.78.02,1.71-.76,2.08-5.28,2.44-10.38,5.04-15.17,7.73-.24.14-.51.2-.77.2Z"/>
            <path class="illu-small2-cls-27" d="m436.66,273.34c-.61,0-1.19-.36-1.44-.95-.34-.79.03-1.71.82-2.05,1.75-.75,3.53-1.49,5.3-2.21,7.99-3.26,16.06-6.18,23.98-8.7.82-.26,1.7.19,1.97,1.02.26.82-.19,1.7-1.02,1.97-7.85,2.49-15.84,5.39-23.75,8.62-1.75.71-3.51,1.45-5.25,2.19-.2.09-.41.13-.61.13Z"/>
            <path class="illu-small2-cls-27" d="m495.55,254.83c-.74,0-1.39-.52-1.54-1.27-.16-.85.4-1.67,1.24-1.83,8.23-1.57,15.91-2.52,22.83-2.85.87-.04,1.6.63,1.64,1.49.04.86-.63,1.6-1.49,1.64-6.77.32-14.31,1.26-22.4,2.79-.1.02-.2.03-.29.03Z"/>
            <path class="illu-small2-cls-27" d="m542.46,286.49c-.37,0-.75-.13-1.05-.41-.64-.58-.69-1.57-.11-2.21,4.74-5.24,7.78-10.06,9.03-14.33.24-.83,1.11-1.31,1.94-1.06.83.24,1.31,1.11,1.06,1.94-1.38,4.73-4.65,9.96-9.72,15.55-.31.34-.73.51-1.16.51Z"/>
            <path class="illu-small2-cls-27" d="m497.77,318.97c-.56,0-1.1-.3-1.38-.82-.41-.76-.13-1.71.63-2.12,4.32-2.33,8.51-4.75,12.47-7.18.74-.45,1.7-.22,2.15.51s.22,1.7-.51,2.15c-4.01,2.46-8.25,4.9-12.62,7.26-.24.13-.49.19-.74.19Z"/>
            <path class="illu-small2-cls-27" d="m450.39,339.66c-.65,0-1.26-.41-1.48-1.06-.28-.82.15-1.71.97-1.99,5.57-1.92,11.23-4.05,16.8-6.32,1.51-.62,3.04-1.25,4.54-1.89.8-.34,1.71.03,2.05.83.34.8-.03,1.71-.83,2.05-1.51.64-3.05,1.28-4.58,1.91-5.63,2.3-11.34,4.44-16.96,6.38-.17.06-.34.09-.51.09Z"/>
            <path class="illu-small2-cls-27" d="m409.18,350.41c-.75,0-1.41-.54-1.54-1.31-.14-.85.43-1.66,1.29-1.8,9.08-1.52,18.79-3.81,28.86-6.81.83-.25,1.7.23,1.95,1.05.25.83-.23,1.7-1.05,1.95-10.2,3.04-20.04,5.36-29.24,6.89-.09.01-.17.02-.26.02Z"/>
            <path class="illu-small2-cls-27" d="m364.22,348.59c-.24,0-.49-.06-.72-.18-3.66-1.91-6.16-4.46-7.43-7.58-2.79-6.85.61-15.79,9.85-25.85.58-.64,1.57-.68,2.21-.1.64.58.68,1.57.1,2.21-8.36,9.11-11.56,16.91-9.26,22.56.98,2.42,3,4.43,5.98,5.99.77.4,1.06,1.34.66,2.11-.28.54-.82.84-1.39.84Z"/>
            <path class="illu-small2-cls-15" d="m466.26,253.89c-.88,0-1.7-.56-1.98-1.44-.36-1.1.24-2.27,1.34-2.63,5.88-1.91,11.77-3.66,17.51-5.21,1.11-.3,2.26.36,2.56,1.47s-.36,2.26-1.47,2.56c-5.67,1.53-11.49,3.26-17.3,5.15-.21.07-.43.1-.65.1Z"/>
            <path class="illu-small2-cls-15" d="m506.96,243.38c-.99,0-1.86-.7-2.05-1.71-.21-1.13.54-2.22,1.67-2.43,13.44-2.49,25.53-3.65,35.92-3.44,1.15.02,2.07.98,2.04,2.13-.02,1.15-.98,2.07-2.13,2.04-10.11-.2-21.91.94-35.08,3.37-.13.02-.26.04-.38.04Z"/>
            <path class="illu-small2-cls-15" d="m562.35,285.12c-.52,0-1.04-.19-1.44-.58-.83-.8-.86-2.12-.07-2.95,11.3-11.82,15.9-22.3,12.95-29.53-.44-1.07.08-2.28,1.14-2.72,1.07-.43,2.28.08,2.72,1.14,3.66,8.97-1.12,20.72-13.8,33.99-.41.43-.96.64-1.51.64Z"/>
            <path class="illu-small2-cls-15" d="m457.93,346.39c-.85,0-1.65-.52-1.96-1.36-.4-1.08.15-2.28,1.23-2.68,4.12-1.53,8.3-3.15,12.41-4.83,7.32-2.98,14.56-6.18,21.53-9.51,1.04-.5,2.29-.06,2.78.98.5,1.04.06,2.29-.98,2.78-7.04,3.36-14.36,6.59-21.75,9.61-4.16,1.69-8.38,3.34-12.54,4.88-.24.09-.48.13-.72.13Z"/>
            <path class="illu-small2-cls-15" d="m369,365.54c-5.1,0-9.77-.31-13.93-.94-1.14-.17-1.92-1.23-1.75-2.37.17-1.14,1.23-1.92,2.37-1.75,10.15,1.52,23.59,1.09,38.87-1.26,1.14-.18,2.2.61,2.38,1.75.17,1.14-.61,2.2-1.75,2.38-9.51,1.46-18.35,2.2-26.19,2.2Z"/>
            <path class="illu-small2-cls-15" d="m338.12,358.19c-.46,0-.92-.15-1.31-.46-2.43-1.96-4.21-4.28-5.28-6.9-1.37-3.36-1.56-7.15-.57-11.27.27-1.12,1.4-1.81,2.52-1.54,1.12.27,1.81,1.4,1.54,2.52-.78,3.25-.65,6.18.38,8.72.8,1.96,2.15,3.72,4.03,5.23.9.72,1.04,2.04.32,2.93-.41.51-1.02.78-1.63.78Z"/>
            <path class="illu-small2-cls-15" d="m355.38,312.27c-.58,0-1.16-.24-1.57-.72-.76-.87-.67-2.19.2-2.94,3.77-3.28,7.98-6.63,12.51-9.95.93-.68,2.24-.48,2.92.45.68.93.48,2.24-.45,2.92-4.44,3.25-8.56,6.52-12.24,9.72-.4.34-.88.51-1.37.51Z"/>
            <path class="illu-small2-cls-40" d="m445.35,247.22c-.84,0-1.63-.51-1.95-1.34-.41-1.08.13-2.28,1.21-2.69,7.53-2.87,15.15-5.58,22.64-8.05,1.09-.36,2.27.23,2.63,1.33s-.23,2.27-1.33,2.63c-7.43,2.45-14.98,5.13-22.46,7.99-.24.09-.5.14-.74.14Z"/>
            <path class="illu-small2-cls-40" d="m517.23,225.92c-.97,0-1.84-.68-2.04-1.67-.23-1.13.5-2.23,1.63-2.46,5.76-1.17,11.45-2.18,16.89-3,1.14-.17,2.2.61,2.37,1.75s-.61,2.2-1.75,2.37c-5.38.81-10.99,1.81-16.68,2.97-.14.03-.28.04-.42.04Z"/>
            <path class="illu-small2-cls-40" d="m562.35,307.65c-.66,0-1.31-.31-1.72-.9-.66-.95-.42-2.25.53-2.9,2.48-1.72,4.93-3.47,7.26-5.19.93-.68,2.23-.49,2.92.44s.49,2.23-.44,2.92c-2.37,1.75-4.85,3.52-7.37,5.26-.36.25-.78.37-1.19.37Z"/>
            <path class="illu-small2-cls-40" d="m530.14,327.57c-.73,0-1.44-.39-1.83-1.07-.56-1.01-.2-2.28.81-2.84,6.28-3.49,12.4-7.09,18.18-10.71.98-.61,2.26-.31,2.88.66.61.98.31,2.26-.66,2.88-5.84,3.65-12.02,7.29-18.37,10.81-.32.18-.67.26-1.01.26Z"/>
            <path class="illu-small2-cls-40" d="m415.52,373.96c-.92,0-1.76-.62-2.01-1.55-.3-1.11.36-2.26,1.48-2.55,9.09-2.43,18.44-5.25,27.8-8.38,1.09-.37,2.28.22,2.64,1.32.37,1.09-.22,2.27-1.32,2.64-9.44,3.16-18.87,6-28.04,8.46-.18.05-.36.07-.54.07Z"/>
            <path class="illu-small2-cls-40" d="m372.35,382.93c-1.02,0-1.92-.75-2.06-1.8-.16-1.14.64-2.2,1.78-2.36,3.06-.43,6.21-.92,9.38-1.47,1.14-.2,2.21.57,2.41,1.7.2,1.14-.57,2.21-1.7,2.41-3.21.55-6.41,1.05-9.51,1.49-.1.01-.2.02-.29.02Z"/>
            <path class="illu-small2-cls-40" d="m320.81,383.44c-.13,0-.26-.01-.4-.04-9.51-1.84-16.77-5.03-21.58-9.5-.84-.78-.89-2.11-.11-2.95.78-.84,2.11-.89,2.95-.11,4.22,3.93,10.79,6.78,19.52,8.46,1.13.22,1.87,1.31,1.65,2.44-.19,1-1.07,1.69-2.05,1.69Z"/>
            <path class="illu-small2-cls-40" d="m320.81,318.3c-.57,0-1.13-.23-1.54-.68-.78-.85-.72-2.17.13-2.95,5.4-4.93,11.56-9.97,18.31-14.98.93-.69,2.23-.49,2.92.43.69.93.49,2.23-.43,2.92-6.64,4.93-12.69,9.87-17.98,14.71-.4.37-.9.55-1.41.55Z"/>
            <path class="illu-small2-cls-40" d="m376.28,279.44c-.73,0-1.43-.38-1.82-1.06-.57-1-.21-2.28.79-2.84,4.42-2.5,9.01-4.99,13.64-7.4,1.02-.53,2.28-.14,2.81.89.53,1.02.14,2.28-.89,2.81-4.59,2.39-9.14,4.86-13.52,7.34-.32.18-.68.27-1.02.27Z"/>
            <path class="illu-small2-cls-34" d="m310.53,413.62c-1.12,0-2.05-.89-2.08-2.02-.04-1.15.87-2.11,2.02-2.15,4.89-.15,10.06-.46,15.34-.92,1.15-.1,2.16.75,2.26,1.9.1,1.15-.75,2.16-1.9,2.26-5.36.47-10.6.78-15.57.94-.02,0-.04,0-.07,0Z"/>
            <path class="illu-small2-cls-34" d="m295.45,413.58s-.06,0-.09,0c-2.15-.09-4.28-.21-6.33-.37-1.15-.09-2.01-1.09-1.92-2.24.09-1.15,1.09-2.01,2.24-1.92,2,.15,4.08.28,6.18.36,1.15.05,2.05,1.02,2,2.17-.05,1.12-.97,2-2.08,2Z"/>
            <path class="illu-small2-cls-34" d="m300.47,302.72c-.64,0-1.27-.29-1.68-.85-.68-.93-.48-2.23.45-2.92,3.28-2.41,6.71-4.85,10.2-7.25.95-.65,2.25-.41,2.9.53.65.95.41,2.25-.53,2.9-3.45,2.38-6.85,4.79-10.09,7.18-.37.27-.8.41-1.23.41Z"/>
            <path class="illu-small2-cls-34" d="m367.1,261.76c-.75,0-1.48-.41-1.85-1.12-.53-1.02-.14-2.28.88-2.82,12.22-6.39,25.05-12.58,38.11-18.4,1.05-.47,2.29,0,2.76,1.06.47,1.05,0,2.29-1.06,2.76-12.99,5.79-25.73,11.94-37.88,18.29-.31.16-.64.24-.96.24Z"/>
            <path class="illu-small2-cls-34" d="m486,213.03c-.89,0-1.72-.58-1.99-1.48-.34-1.1.28-2.27,1.38-2.61,4.62-1.41,9.28-2.78,13.85-4.07,1.11-.31,2.26.33,2.57,1.44.31,1.11-.33,2.26-1.44,2.57-4.54,1.28-9.17,2.63-13.76,4.04-.2.06-.41.09-.61.09Z"/>
            <path class="illu-small2-cls-34" d="m521.83,203.24c-.94,0-1.8-.64-2.03-1.6-.27-1.12.42-2.25,1.54-2.51,19.17-4.58,37.39-7.85,54.16-9.71,1.15-.13,2.18.7,2.3,1.84.13,1.15-.7,2.18-1.84,2.3-16.6,1.84-34.65,5.07-53.65,9.62-.16.04-.33.06-.49.06Z"/>
            <path class="illu-small2-cls-34" d="m548.87,340.18c-.74,0-1.46-.4-1.84-1.1-.55-1.01-.17-2.28.85-2.83,5.39-2.9,10.73-5.88,15.88-8.85,1-.58,2.27-.24,2.85.76.58,1,.24,2.27-.76,2.85-5.19,3-10.57,6-15.99,8.92-.31.17-.65.25-.99.25Z"/>
            <path class="illu-small2-cls-34" d="m421.35,393.07c-.9,0-1.72-.58-2-1.48-.33-1.1.29-2.27,1.39-2.6,20.11-6.09,40.64-13.39,61.01-21.69,1.07-.43,2.28.08,2.72,1.14s-.08,2.28-1.14,2.72c-20.5,8.36-41.15,15.7-61.38,21.82-.2.06-.41.09-.61.09Z"/>
            <path class="illu-small2-cls-34" d="m388.75,401.96c-.94,0-1.8-.64-2.03-1.6-.27-1.12.42-2.25,1.54-2.52,2.6-.63,5.26-1.29,7.88-1.97,1.12-.29,2.25.38,2.54,1.5.29,1.12-.38,2.25-1.5,2.54-2.65.68-5.32,1.35-7.94,1.98-.16.04-.33.06-.49.06Z"/>
        </g>
        <g class="illu-small2-galaxy-center">
            <ellipse class="illu-small2-cls-21" cx="454.83" cy="296.53" rx="22.64" ry="7.64" transform="translate(-79.51 200.21) rotate(-22.88)"/>
            <path class="illu-small2-cls-22" d="m475.63,287.59c1.64,3.88-6.37,10.98-17.88,15.85-11.52,4.86-22.21,5.6-23.83,1.76-4.86-11.52.53-24.8,12.05-29.66,11.52-4.86,24.8.53,29.66,12.05Z"/>
        </g>
        <g class="illu-small2-galaxy-particles-pink">
            <path class="illu-small2-cls-19" d="m537.13,328.1c0,1.82-1.47,3.29-3.29,3.29s-3.29-1.47-3.29-3.29,1.47-3.29,3.29-3.29,3.29,1.47,3.29,3.29Z"/>
            <path class="illu-small2-cls-19" d="m582.46,227.15c0,1.82-1.47,3.29-3.29,3.29s-3.29-1.47-3.29-3.29,1.47-3.29,3.29-3.29,3.29,1.47,3.29,3.29Z"/>
            <circle class="illu-small2-cls-19" cx="370.99" cy="271.82" r="3.29"/>
        </g>
        <g class="illu-small2-galaxy-particles-rose">
            <circle class="illu-small2-cls-13" cx="423.7" cy="398.47" r="3.29"/>
            <path class="illu-small2-cls-13" d="m260.43,340.68c0,1.82-1.47,3.29-3.29,3.29s-3.29-1.47-3.29-3.29,1.47-3.29,3.29-3.29,3.29,1.47,3.29,3.29Z"/>
            <path class="illu-small2-cls-13" d="m548.77,342.78c0,1.82-1.47,3.29-3.29,3.29s-3.29-1.47-3.29-3.29,1.47-3.29,3.29-3.29,3.29,1.47,3.29,3.29Z"/>
            <circle class="illu-small2-cls-13" cx="529.87" cy="264.69" r="3.29"/>
            <circle class="illu-small2-cls-13" cx="417.12" cy="235.04" r="3.29"/>
            <circle class="illu-small2-cls-13" cx="340.07" cy="353.01" r="3.29"/>
        </g>
        <g class="illu-small2-galaxy-particles-white">
            <circle class="illu-small2-cls-14" cx="243.14" cy="353.36" r="3.29"/>
            <circle class="illu-small2-cls-14" cx="409.87" cy="384.73" r="3.29"/>
            <circle class="illu-small2-cls-14" cx="384.97" cy="398.47" r="3.29"/>
            <circle class="illu-small2-cls-14" cx="552.9" cy="316.37" r="3.29"/>
            <circle class="illu-small2-cls-14" cx="568.58" cy="346.08" r="3.29"/>
            <circle class="illu-small2-cls-14" cx="597.71" cy="217.2" r="3.29"/>
            <path class="illu-small2-cls-14" d="m570.25,267.99c0,1.82-1.47,3.29-3.29,3.29s-3.29-1.47-3.29-3.29,1.47-3.29,3.29-3.29,3.29,1.47,3.29,3.29Z"/>
            <circle class="illu-small2-cls-14" cx="562.11" cy="199.36" r="3.29"/>
            <circle class="illu-small2-cls-14" cx="543.68" cy="200.81" r="3.29"/>
            <circle class="illu-small2-cls-14" cx="391.56" cy="266.92" r="3.29"/>
            <circle class="illu-small2-cls-14" cx="340.07" cy="365.59" r="3.29"/>
            <path class="illu-small2-cls-14" d="m427,217.2c0,1.82-1.47,3.29-3.29,3.29s-3.29-1.47-3.29-3.29,1.47-3.29,3.29-3.29,3.29,1.47,3.29,3.29Z"/>
            <circle class="illu-small2-cls-14" cx="398.27" cy="230.44" r="3.29"/>
        </g>
        <g class="illu-small2-galaxy-stars">
            <path class="illu-small2-cls-20" d="m425.75,307.83l-1.72.48c-1.52.43-2.71,1.61-3.13,3.13l-.48,1.72-.49-1.72c-.43-1.52-1.61-2.7-3.13-3.13l-1.72-.49,1.72-.48c1.52-.43,2.71-1.61,3.13-3.13l.48-1.72.49,1.72c.43,1.52,1.61,2.7,3.13,3.13l1.72.49Z"/>
            <circle class="illu-small2-cls-7" cx="420.41" cy="307.83" r="6.16"/>
            <path class="illu-small2-cls-20" d="m538.24,338.56l-2.48.7c-2.19.62-3.9,2.33-4.52,4.52l-.7,2.48-.7-2.48c-.62-2.19-2.33-3.89-4.51-4.51l-2.48-.7,2.48-.7c2.19-.62,3.9-2.33,4.52-4.52l.7-2.48.7,2.48c.62,2.19,2.33,3.89,4.51,4.51l2.48.7Z"/>
            <circle class="illu-small2-cls-8" cx="530.55" cy="338.56" r="9.96"/>
            <path class="illu-small2-cls-20" d="m364.65,266.92l-1.72.48c-1.52.43-2.71,1.61-3.13,3.13l-.48,1.72-.49-1.72c-.43-1.52-1.61-2.7-3.13-3.13l-1.72-.49,1.72-.48c1.52-.43,2.71-1.61,3.13-3.13l.48-1.72.49,1.72c.43,1.52,1.61,2.7,3.13,3.13l1.72.49Z"/>
            <circle class="illu-small2-cls-4" cx="359.31" cy="266.92" r="6.16"/>
            <path class="illu-small2-cls-20" d="m579.32,215.28l-3.46.97c-3.06.86-5.45,3.25-6.31,6.31l-.97,3.46-.98-3.47c-.86-3.05-3.25-5.44-6.3-6.3l-3.47-.98,3.46-.97c3.06-.86,5.45-3.25,6.31-6.31l.97-3.46.98,3.47c.86,3.05,3.25,5.44,6.3,6.3l3.47.98Z"/>
            <circle class="illu-small2-cls-9" cx="568.58" cy="215.28" r="12.63"/>
            <path class="illu-small2-cls-20" d="m369.24,351.19l-3.46.97c-3.06.86-5.45,3.25-6.31,6.31l-.97,3.46-.98-3.47c-.86-3.05-3.25-5.44-6.3-6.3l-3.47-.98,3.46-.97c3.06-.86,5.45-3.25,6.31-6.31l.97-3.46.98,3.47c.86,3.05,3.25,5.44,6.3,6.3l3.47.98Z"/>
            <circle class="illu-small2-cls-1" cx="358.5" cy="351.19" r="12.63"/>
        </g>
    </g>
</svg>