<svg xmlns="http://www.w3.org/2000/svg" width="657" height="770" viewBox="0 0 657 770">
    <g transform="translate(-173.005 -2345.996)">
        <rect width="657" height="770" transform="translate(173.005 2345.996)" fill="#f9e7e5"/>
        <g transform="translate(140.705 2318.826)">
            <path d="M290.5,157.5s-1-2,2-5-4-6.66-5-5.33-4.91,9.33-1.45,12.33C286.05,159.5,290.5,159.5,290.5,157.5Z" transform="translate(-163.7 -87.83)" fill="#6b3815"/>
            <path d="M291.13,156.21S301,139,328,136s41.2,10.21,52.1,10.11S399,145,401,143c0,0,1,24-48,29Z" transform="translate(-163.7 -87.83)" fill="#849c32"/>
            <path d="M291.13,156.21s6.37-8.71,31.37-6.71,28.14,7.42,40.57,6.71S392.5,154.5,401,143c0,0,2.5,23.5-48,29Z" transform="translate(-163.7 -87.83)" fill="#5b751c"/>
            <path d="M285,159s-7.63-10-22.32-7.5-34.18,14-42.18,35-11,33-5,61,39,55,58,53c0,0,8,.53,11.5-2.24s6.5-2.76,8.5-1.76,7.21,4.35,26.61,2.17,40.56-17.09,50-46.13.08-68.28-13.25-79.66-37.33-31.38-65.7-16C291.13,156.84,288.5,160.5,285,159Z" transform="translate(-163.7 -87.83)" fill="#ff9d8e"/>
            <path d="M284.5,159.5S237,183,288,296C288,296,258.5,188.5,284.5,159.5Z" transform="translate(-163.7 -87.83)" fill="#f27d75"/>
            <path d="M251.47,164.94c-6.76,3.49-22.65,13.39-24.76,30.13a5.59,5.59,0,0,0,2.41,5.43c1.59,1,3.74,1,5.95-3,4.43-8,2.43-14,22.43-25,0,0,7.22-5.06,1.41-7.8a8.43,8.43,0,0,0-7.44.24Z" transform="translate(-163.7 -87.83)" fill="#f9e1e1"/>
            <path d="M314.5,151.5s64.5,1.5,59,81.77a78.9,78.9,0,0,1-7.19,28.92c-8.56,17.89-27.75,42.12-67.8,36.31,0,0,50-1,61-50S351.5,163.5,314.5,151.5Z" transform="translate(-163.7 -87.83)" fill="#f27d75"/>
            <path d="M424.1,731.27s-1.4-1.75.9-5.31-5.31-5.67-6-4.16-2.83,10.15,1.18,12.36C420.17,734.16,424.52,733.22,424.1,731.27Z" transform="translate(-163.7 -87.83)" fill="#6b3815"/>
            <path d="M424.44,729.87s6-18.9,31.79-27.52,42.43,1.3,53.06-1.1,18.24-5.06,19.78-7.43c0,0,6,23.25-40.82,38.46Z" transform="translate(-163.7 -87.83)" fill="#849c32"/>
            <path d="M424.44,729.87s4.4-9.85,29.26-13.16,29.07,1.32,41.07-2,28.41-7.87,34.3-20.9c0,0,7.39,22.44-40.82,38.46Z" transform="translate(-163.7 -87.83)" fill="#5b751c"/>
            <path d="M419,733.89s-9.57-8.17-23.39-2.63-30.47,20.89-33.87,43.1-3.8,34.58,8,60.69,49.71,45.55,67.87,39.59c0,0,7.93-1.17,10.77-4.61s5.77-4.07,7.93-3.51,8,2.73,26.47-3.48,36.05-25.26,39.14-55.63-14.3-66.76-29.73-75.08-43.11-22.81-67.61-1.84C424.58,730.49,422.78,734.62,419,733.89Z" transform="translate(-163.7 -87.83)" fill="#ff9d8e"/>
            <path d="M418.66,734.49s-41.49,33,32.17,132.7C450.83,867.19,399.35,768.31,418.66,734.49Z" transform="translate(-163.7 -87.83)" fill="#f27d75"/>
            <path d="M387.51,746.76c-5.87,4.84-19.32,17.87-17.86,34.68a5.59,5.59,0,0,0,3.51,4.79c1.77.64,3.86.19,5.18-4.19,2.65-8.75-.57-14.19,16.66-29.16,0,0,6-6.46-.26-7.92a8.44,8.44,0,0,0-7.23,1.8Z" transform="translate(-163.7 -87.83)" fill="#f9e1e1"/>
            <path d="M446.3,720.35s63.37-12.12,74.89,67.5a79.171,79.171,0,0,1-.93,29.79c-4.61,19.29-18.26,47-58.64,49.78,0,0,48.67-11.51,49.1-61.73S485,724.28,446.3,720.35Z" transform="translate(-163.7 -87.83)" fill="#f27d75"/>
            <path d="M411.47,361.47s-2.24,0-3.51-4.08-7.76.47-7,2,6,8.66,10.27,7C411.19,366.34,413.24,362.39,411.47,361.47Z" transform="translate(-163.7 -87.83)" fill="#6b3815"/>
            <path d="M410.61,360.32s-10.71-16.7-.91-42,28.08-31.84,33-41.56,7.74-17.27,6.89-20c0,0,21.75,10.19,3.57,56Z" transform="translate(-163.7 -87.83)" fill="#849c32"/>
            <path d="M410.61,360.32s-4.78-9.68,8.53-30.93,19.57-21.54,24.68-32.89,12.07-26.9,5.79-39.75c0,0,22,8.63,3.57,56Z" transform="translate(-163.7 -87.83)" fill="#5b751c"/>
            <path d="M410.26,367s-12.39,2.16-16.95,16.34S390,420.16,404.88,437s24.2,25,51.81,32.59,66.79-9.21,73.79-27c0,0,4.16-6.85,3.32-11.23s.55-7,2.36-8.35,7.19-4.4,14.21-22.6,3.56-43.88-17.86-65.63-60.53-31.59-76.78-25-45.07,18.63-44.55,50.88C411.18,360.61,413.21,364.63,410.26,367Z" transform="translate(-163.7 -87.83)" fill="#ff9d8e"/>
            <path d="M410.47,367.71s-1.07,53,122.71,59.9C533.18,427.61,424.2,404.16,410.47,367.71Z" transform="translate(-163.7 -87.83)" fill="#f27d75"/>
            <path d="M400.05,399.53c0,7.61,1.43,26.27,15.31,35.87a5.56,5.56,0,0,0,5.93.36c1.62-.95,2.6-2.85.08-6.66-5.05-7.62-11.3-8.61-11.83-31.43,0,0-1.15-8.75-6.27-4.85a8.44,8.44,0,0,0-3.22,6.71Z" transform="translate(-163.7 -87.83)" fill="#f9e1e1"/>
            <path d="M417.22,337.41s31.11-56.53,99.77-14.59a79.34,79.34,0,0,1,22.34,19.73c11.91,15.85,24.56,44.05.91,76.9,0,0,22.19-44.81-16.2-77.19S445,310.12,417.22,337.41Z" transform="translate(-163.7 -87.83)" fill="#f27d75"/>
            <path d="M644.21,632.38s-.44-2.19,3.25-4.29-2.08-7.48-3.4-6.47-7.21,7.69-4.68,11.5C639.38,633.12,643.67,634.31,644.21,632.38Z" transform="translate(-163.7 -87.83)" fill="#6b3815"/>
            <path d="M645.15,631.3s14.1-14,40.93-9.66,37,20.8,47.53,23.6,18.51,4,21,2.57c0,0-5.42,23.4-54,15.18Z" transform="translate(-163.7 -87.83)" fill="#849c32"/>
            <path d="M645.15,631.3s8.46-6.7,32,1.88,25.15,14.65,37.32,17.27,28.83,6.18,40.08-2.64c0,0-3.84,23.32-54,15.18Z" transform="translate(-163.7 -87.83)" fill="#5b751c"/>
            <path d="M638.51,632.36s-4.7-11.67-19.52-13.17-36.68,4.4-50,22.51-19.38,28.89-21,57.47,22.95,63.4,41.8,66.53c0,0,7.57,2.64,11.68.9s7-.93,8.66.57,5.8,6.1,25.07,9.17,43.65-5.68,60.46-31.17,18.24-65.79,8.42-80.31-27.63-40.19-59.07-33C645,631.91,641.48,634.74,638.51,632.36Z" transform="translate(-163.7 -87.83)" fill="#ff9d8e"/>
            <path d="M637.89,632.71s-52,10-32.95,132.51C604.94,765.22,605.11,653.75,637.89,632.71Z" transform="translate(-163.7 -87.83)" fill="#f27d75"/>
            <path d="M604.6,629.16c-7.44,1.57-25.4,6.89-31.89,22.46a5.57,5.57,0,0,0,.89,5.87c1.27,1.39,3.33,2,6.53-1.3,6.4-6.54,6.07-12.85,28.27-18.13,0,0,8.31-3,3.44-7.15A8.47,8.47,0,0,0,604.6,629.16Z" transform="translate(-163.7 -87.83)" fill="#f9e1e1"/>
            <path d="M668.94,633s61.77,18.6,35.06,94.5a79,79,0,0,1-14.63,26c-13,15-38,33.22-75,16.95,0,0,48.47,12.35,72.11-32S701.41,654.4,668.94,633Z" transform="translate(-163.7 -87.83)" fill="#f27d75"/>
            <path d="M711.47,297.26s.23-2.22,4.37-3.15.19-7.76-1.37-7.18-9.14,5.25-7.83,9.63C706.64,296.56,710.4,299,711.47,297.26Z" transform="translate(-163.7 -87.83)" fill="#6b3815"/>
            <path d="M712.69,296.51s17.56-9.25,42,2.68,29.33,30.7,38.59,36.45,16.54,9.19,19.3,8.57c0,0-12,20.8-56.06-1.22Z" transform="translate(-163.7 -87.83)" fill="#849c32"/>
            <path d="M712.69,296.51s10-3.94,30.09,11.14,19.78,21.34,30.66,27.4,25.77,14.32,39.1,9.16c0,0-10.47,21.18-56.06-1.22Z" transform="translate(-163.7 -87.83)" fill="#5b751c"/>
            <path d="M706,295.58s-1.09-12.53-14.82-18.29-36.37-6.49-54.37,7-27,22-36.9,48.83,3.46,67.33,20.58,75.82c0,0,6.47,4.74,10.91,4.28s7,1.14,8.12,3.06,3.76,7.53,21.3,16.09,43.41,7.29,66.92-12.18,36.64-57.61,31.48-74.37S744.53,299.29,712.35,297C712.35,297,708.17,298.72,706,295.58Z" transform="translate(-163.7 -87.83)" fill="#ff9d8e"/>
            <path d="M705.33,295.73s-52.7-5.6-70.17,117.14C635.16,412.87,667.84,306.29,705.33,295.73Z" transform="translate(-163.7 -87.83)" fill="#f27d75"/>
            <path d="M674.53,282.63c-7.58-.67-26.3-.82-37.06,12.18a5.6,5.6,0,0,0-.86,5.88c.81,1.7,2.62,2.84,6.63.65,8-4.38,9.55-10.52,32.33-9.09,0,0,8.81-.4,5.37-5.84A8.44,8.44,0,0,0,674.53,282.63Z" transform="translate(-163.7 -87.83)" fill="#f9e1e1"/>
            <path d="M735,305.05s53.66,35.82,6,100.65a79.24,79.24,0,0,1-21.57,20.57c-16.81,10.52-46,20.7-76.7-5.66,0,0,42.76,25.94,78.3-9.55S759.76,335,735,305.05Z" transform="translate(-163.7 -87.83)" fill="#f27d75"/>
            <path d="M324.76,618.71s-1.13,1.93-5.29,1-3.39,7-1.73,7.1,10.49-1,11.12-5.51C328.86,621.35,326.43,617.62,324.76,618.71Z" transform="translate(-163.7 -87.83)" fill="#6b3815"/>
            <path d="M323.33,618.89S303.52,620,286.27,599s-13.95-40.09-20-49.17-11.25-15.22-14-15.81c0,0,19.56-13.94,50.51,24.38Z" transform="translate(-163.7 -87.83)" fill="#849c32"/>
            <path d="M323.33,618.89s-10.77-.58-22.75-22.62-9.15-27.62-16.53-37.65-17.5-23.73-31.78-24.57c0,0,18.33-14.92,50.51,24.38Z" transform="translate(-163.7 -87.83)" fill="#5b751c"/>
            <path d="M329,622.5s-4.21,11.85,5.9,22.79,30.39,21,52.35,16.23,33.65-8.8,53.84-29.12,24.78-62.7,12.73-77.53c0,0-3.93-7-8.15-8.41s-5.87-3.94-6.12-6.16-.3-8.41-12.71-23.47-36.47-24.65-65.94-16.69-57.24,37.22-59.5,54.6-5.9,48.41,22.44,63.8C323.86,618.54,328.36,618.75,329,622.5Z" transform="translate(-163.7 -87.83)" fill="#ff9d8e"/>
            <path d="M329.71,622.64s45.62,27,112.44-77.46C442.15,545.18,368.2,628.59,329.71,622.64Z" transform="translate(-163.7 -87.83)" fill="#f27d75"/>
            <path d="M352.3,647.35c6.62,3.75,23.59,11.66,38.77,4.29a5.56,5.56,0,0,0,3.22-5c0-1.88-1.2-3.67-5.76-3.34-9.12.65-13,5.61-33.19-5.14,0,0-8.18-3.29-7.31,3.08A8.45,8.45,0,0,0,352.3,647.35Z" transform="translate(-163.7 -87.83)" fill="#f9e1e1"/>
            <path d="M306.62,601.88s-34-54.86,36.3-94.07A79.21,79.21,0,0,1,371.08,498c19.66-2.59,50.44.25,67.43,37,0,0-28.13-41.34-75.19-23.8S296.48,564.33,306.62,601.88Z" transform="translate(-163.7 -87.83)" fill="#f27d75"/>
            <path d="M268.5,352.35a3.191,3.191,0,0,0-.59,1.28A3.55,3.55,0,0,1,266,356c-2,1-2.5-.5-5.24-1.5-1.18-.43-9.26-3-25.26,7s-23.38,31-21.19,51.52,6.19,31.48,21.19,49.48,33,25,59,21,46.67-25,52.34-38.5,8.73-35.5.69-55-18-38.5-43-46.5C304.5,343.5,280.21,337.67,268.5,352.35Z" transform="translate(-163.7 -87.83)" fill="#ff9d8e"/>
            <path d="M272,375s-15-17-18-17-21.7,2.57-30.1,20-8.4,39.46-3.4,55.46,24,43.19,51.5,48.1,55.5-15.1,61.5-22.1,22-28,13-62-37-53-51-52-20,3-21,5-1,24-1,24Z" transform="translate(-163.7 -87.83)" fill="#fec5a2"/>
            <path d="M281.44,372.14S259.5,370.5,253.5,390.5s6,42,19,51,19,14,28,12S316,425,311,404C307.46,389.12,301.37,374.77,281.44,372.14Z" transform="translate(-163.7 -87.83)" fill="#ff9d8e"/>
            <path d="M269.5,380.5s-19,10.32-10,35.16,31.8,33.31,37.4,31.57,12.59-9.73,11.59-31.73-14.32-36.62-25.66-37.38C273.5,377.5,269.5,380.5,269.5,380.5Z" transform="translate(-163.7 -87.83)" fill="#8c633a"/>
            <path d="M290.5,384.5s-1,1.2,0,2.1,4.25,3.27,6,5.9c2,3,3,1,2-1C298.05,390.61,292.5,382.5,290.5,384.5Z" transform="translate(-163.7 -87.83)" fill="#fff"/>
            <circle cx="1" cy="1" r="1" transform="translate(123.3 295.17)" fill="#fff"/>
            <path d="M257,401s-3,23,20,39,25,4,29-3c0,0-5.5,8.5-11.5,6.5S262,436,257,401Z" transform="translate(-163.7 -87.83)" fill="#77532c"/>
            <circle cx="1" cy="1" r="1" transform="translate(82.3 308.17)" fill="#ff9d8e"/>
            <circle cx="1" cy="1" r="1" transform="translate(85.3 314.17)" fill="#ff9d8e"/>
            <circle cx="1" cy="1" r="1" transform="translate(74.3 311.17)" fill="#ff9d8e"/>
            <circle cx="1" cy="1" r="1" transform="translate(76.3 332.17)" fill="#ff9d8e"/>
            <circle cx="1" cy="1" r="1" transform="translate(81.3 325.17)" fill="#ff9d8e"/>
            <circle cx="1" cy="1" r="1" transform="translate(87.3 328.17)" fill="#ff9d8e"/>
            <circle cx="1" cy="1" r="1" transform="translate(115.3 364.17)" fill="#ff9d8e"/>
            <circle cx="1" cy="1" r="1" transform="translate(150.3 336.17)" fill="#ff9d8e"/>
            <circle cx="1" cy="1" r="1" transform="translate(159.3 346.17)" fill="#ff9d8e"/>
            <circle cx="1" cy="1" r="1" transform="translate(153.3 341.17)" fill="#ff9d8e"/>
            <circle cx="1" cy="1" r="1" transform="translate(166.3 321.17)" fill="#ff9d8e"/>
            <circle cx="1" cy="1" r="1" transform="translate(155.3 319.17)" fill="#ff9d8e"/>
            <circle cx="1" cy="1" r="1" transform="translate(150.3 330.17)" fill="#ff9d8e"/>
            <circle cx="1" cy="1" r="1" transform="translate(157.3 302.17)" fill="#ff9d8e"/>
            <circle cx="1" cy="1" r="1" transform="translate(147.3 300.17)" fill="#ff9d8e"/>
            <circle cx="1" cy="1" r="1" transform="translate(142.3 288.17)" fill="#ff9d8e"/>
            <circle cx="1" cy="1" r="1" transform="translate(138.3 292.17)" fill="#ff9d8e"/>
            <circle cx="1" cy="1" r="1" transform="translate(148.3 285.17)" fill="#ff9d8e"/>
            <circle cx="1" cy="1" r="1" transform="translate(138.3 284.17)" fill="#ff9d8e"/>
            <circle cx="1" cy="1" r="1" transform="translate(145.3 305.17)" fill="#ff9d8e"/>
            <circle cx="1" cy="1" r="1" transform="translate(150.3 305.17)" fill="#ff9d8e"/>
            <circle cx="1" cy="1" r="1" transform="translate(149.3 313.17)" fill="#ff9d8e"/>
            <circle cx="1" cy="1" r="1" transform="translate(150.3 323.17)" fill="#ff9d8e"/>
            <circle cx="1" cy="1" r="1" transform="translate(154.3 328.17)" fill="#ff9d8e"/>
            <circle cx="1" cy="1" r="1" transform="translate(148.3 349.17)" fill="#ff9d8e"/>
            <circle cx="1" cy="1" r="1" transform="translate(112.3 358.17)" fill="#ff9d8e"/>
            <circle cx="1" cy="1" r="1" transform="translate(106.3 358.17)" fill="#ff9d8e"/>
            <circle cx="1" cy="1" r="1" transform="translate(100.3 349.17)" fill="#ff9d8e"/>
            <circle cx="1" cy="1" r="1" transform="translate(100.3 355.17)" fill="#ff9d8e"/>
            <circle cx="1" cy="1" r="1" transform="translate(94.3 360.17)" fill="#ff9d8e"/>
            <circle cx="1" cy="1" r="1" transform="translate(93.3 355.17)" fill="#ff9d8e"/>
            <circle cx="1" cy="1" r="1" transform="translate(92.3 340.17)" fill="#ff9d8e"/>
            <circle cx="1" cy="1" r="1" transform="translate(85.3 352.17)" fill="#ff9d8e"/>
            <circle cx="1" cy="1" r="1" transform="translate(89.3 335.17)" fill="#ff9d8e"/>
            <circle cx="1" cy="1" r="1" transform="translate(88.3 342.17)" fill="#ff9d8e"/>
            <circle cx="1" cy="1" r="1" transform="translate(83.3 330.17)" fill="#ff9d8e"/>
            <path d="M549.82,139.59a3.239,3.239,0,0,0-1.12.85,3.55,3.55,0,0,1-2.8,1.21c-2.23-.06-2-1.62-3.92-3.78-.85-.94-6.78-7-25.6-5.64s-35.19,16.49-42.84,35.61-9.27,30.71-4.44,53.64,17.45,37.54,42.3,46.17,53-.24,64.27-9.52S600,230.85,602,209.86s2.09-42.46-16.25-61.24C585.78,148.62,567,132.1,549.82,139.59Z" transform="translate(-163.7 -87.83)" fill="#ff9d8e"/>
            <path d="M542.31,161.24s-5.3-22-7.95-23.44-20.38-7.89-36,3.61-25.89,30.94-29,47.42,1,49.4,23,66.61,56.11,12.64,64.69,9.26,32.55-14.44,40.51-48.7-7.88-64.15-20.72-69.82-19.08-6.71-20.9-5.41-12.12,20.74-12.12,20.74Z" transform="translate(-163.7 -87.83)" fill="#fec5a2"/>
            <path d="M552,163.13s-18.62-11.71-33.28,3.15-14.36,39.92-7.09,54,10.24,21.27,19.13,23.71,27-17.92,32.45-38.82C567,190.32,568.37,174.79,552,163.13Z" transform="translate(-163.7 -87.83)" fill="#ff9d8e"/>
            <path d="M537.53,164.93s-21.61.24-25.29,26.4,12.51,44.32,18.27,45.4,15.68-2.7,25.1-22.61,4.49-39.07-5.18-45C542.47,164.16,537.53,164.93,537.53,164.93Z" transform="translate(-163.7 -87.83)" fill="#8c633a"/>
            <path d="M554.21,178.3s-1.44.59-1,1.86,2.22,4.87,2.54,8c.36,3.59,2.18,2.29,2.23,0C558,187.23,556.91,177.47,554.21,178.3Z" transform="translate(-163.7 -87.83)" fill="#fff"/>
            <circle cx="1" cy="1" r="1" transform="translate(387.54 87.85)" fill="#fff"/>
            <path d="M516.88,177.2s-13.41,18.92-.58,43.82,20.22,15.24,27,10.93c0,0-8.84,4.93-13.2.36S504.92,210.47,516.88,177.2Z" transform="translate(-163.7 -87.83)" fill="#77532c"/>
            <circle cx="1" cy="1" r="1" transform="translate(345.23 80.15)" fill="#ff9d8e"/>
            <circle cx="1" cy="1" r="1" transform="translate(345.07 86.85)" fill="#ff9d8e"/>
            <circle cx="1" cy="1" r="1" transform="translate(336.75 79.05)" fill="#ff9d8e"/>
            <circle cx="1" cy="1" r="1" transform="translate(328.69 98.55)" fill="#ff9d8e"/>
            <circle cx="1" cy="1" r="1" transform="translate(336.38 94.7)" fill="#ff9d8e"/>
            <circle cx="1" cy="1" r="1" transform="translate(340.28 100.16)" fill="#ff9d8e"/>
            <circle cx="1" cy="1" r="1" transform="translate(348.17 145.08)" fill="#ff9d8e"/>
            <circle cx="1" cy="1" r="1" transform="translate(392.21 136.72)" fill="#ff9d8e"/>
            <circle cx="1" cy="1" r="1" transform="translate(395.48 149.77)" fill="#ff9d8e"/>
            <circle cx="1" cy="1" r="1" transform="translate(392.52 142.55)" fill="#ff9d8e"/>
            <circle cx="1" cy="1" r="1" transform="translate(413.37 130.96)" fill="#ff9d8e"/>
            <circle cx="1" cy="1" r="1" transform="translate(404.58 124.04)" fill="#ff9d8e"/>
            <circle cx="1" cy="1" r="1" transform="translate(395.02 131.42)" fill="#ff9d8e"/>
            <circle cx="1" cy="1" r="1" transform="translate(414.31 109.96)" fill="#ff9d8e"/>
            <circle cx="1" cy="1" r="1" transform="translate(406.41 103.51)" fill="#ff9d8e"/>
            <circle cx="1" cy="1" r="1" transform="translate(407.61 90.56)" fill="#ff9d8e"/>
            <circle cx="1" cy="1" r="1" transform="translate(402.2 92.22)" fill="#ff9d8e"/>
            <circle cx="1" cy="1" r="1" transform="translate(414.31 90.72)" fill="#ff9d8e"/>
            <circle cx="1" cy="1" r="1" transform="translate(405.95 85.15)" fill="#ff9d8e"/>
            <circle cx="1" cy="1" r="1" transform="translate(402.3 106.99)" fill="#ff9d8e"/>
            <circle cx="1" cy="1" r="1" transform="translate(406.72 109.33)" fill="#ff9d8e"/>
            <circle cx="1" cy="1" r="1" transform="translate(402.09 115.93)" fill="#ff9d8e"/>
            <circle cx="1" cy="1" r="1" transform="translate(398.29 125.24)" fill="#ff9d8e"/>
            <circle cx="1" cy="1" r="1" transform="translate(399.49 131.53)" fill="#ff9d8e"/>
            <circle cx="1" cy="1" r="1" transform="translate(384.35 147.27)" fill="#ff9d8e"/>
            <circle cx="1" cy="1" r="1" transform="translate(348.33 138.37)" fill="#ff9d8e"/>
            <circle cx="1" cy="1" r="1" transform="translate(343.03 135.57)" fill="#ff9d8e"/>
            <circle cx="1" cy="1" r="1" transform="translate(341.94 124.8)" fill="#ff9d8e"/>
            <circle cx="1" cy="1" r="1" transform="translate(339.13 130.11)" fill="#ff9d8e"/>
            <circle cx="1" cy="1" r="1" transform="translate(331.49 131.72)" fill="#ff9d8e"/>
            <circle cx="1" cy="1" r="1" transform="translate(332.94 126.83)" fill="#ff9d8e"/>
            <circle cx="1" cy="1" r="1" transform="translate(339.08 113.11)" fill="#ff9d8e"/>
            <circle cx="1" cy="1" r="1" transform="translate(327.28 120.43)" fill="#ff9d8e"/>
            <circle cx="1" cy="1" r="1" transform="translate(338.77 107.28)" fill="#ff9d8e"/>
            <circle cx="1" cy="1" r="1" transform="translate(334.61 113)" fill="#ff9d8e"/>
            <circle cx="1" cy="1" r="1" transform="translate(335.81 100.06)" fill="#ff9d8e"/>
            <path d="M821.49,178a3.2,3.2,0,0,0-1.35-.4,3.52,3.52,0,0,1-2.63-1.54c-1.28-1.83.13-2.55.72-5.4.25-1.24,1.61-9.6-10.63-24s-34.13-18.58-54.07-13.41S723.3,144,707.69,161.5s-19.89,36.31-12.12,61.44,31.57,42.5,45.75,46.13,36.4,3.43,54.51-7.37,35.44-23.49,39.69-49.39C835.52,212.31,837.73,187.42,821.49,178Z" transform="translate(-163.7 -87.83)" fill="#ff9d8e"/>
            <path d="M799.6,184.78s14.61-17.33,14.17-20.3-5.73-21.09-24.23-26.84-40.27-2.52-55.36,4.77-39.21,30.07-40,58S717.22,253.09,725,258s30.93,17.66,63.24,3.77,47-44.37,44-58.07-5.9-19.34-8-20-23.89,2.53-23.89,2.53Z" transform="translate(-163.7 -87.83)" fill="#fec5a2"/>
            <path d="M803.81,193.69s-1.6-21.93-22.26-24.94S740.88,180.84,733.89,195s-11.07,20.85-7.77,29.46,30.47,11.15,50.51,3.13C790.83,221.92,804.13,213.8,803.81,193.69Z" transform="translate(-163.7 -87.83)" fill="#ff9d8e"/>
            <path d="M793.79,183.11s-13-17.26-36.25-4.72S729.26,214.73,731.79,220s11.48,11,33.09,6.81S799,207.29,798.1,196C797.34,186.63,793.79,183.11,793.79,183.11Z" transform="translate(-163.7 -87.83)" fill="#8c633a"/>
            <path d="M792.91,204.47s-1.33-.81-2.08.31-2.61,4.68-5,6.8c-2.68,2.42-.55,3.11,1.28,1.83C788,212.84,795.18,206.16,792.91,204.47Z" transform="translate(-163.7 -87.83)" fill="#fff"/>
            <circle cx="1" cy="1" r="1" transform="translate(628.34 113.09)" fill="#fff"/>
            <path d="M771.68,173.75s-23.19.41-35.65,25.5-.29,25.32,7.22,28.25c0,0-9.22-4.19-8.12-10.42S737.79,183.83,771.68,173.75Z" transform="translate(-163.7 -87.83)" fill="#77532c"/>
            <circle cx="1" cy="1" r="1" transform="translate(609.47 74.44)" fill="#ff9d8e"/>
            <circle cx="1" cy="1" r="1" transform="translate(603.98 78.29)" fill="#ff9d8e"/>
            <circle cx="1" cy="1" r="1" transform="translate(605.33 66.97)" fill="#ff9d8e"/>
            <circle cx="1" cy="1" r="1" transform="translate(584.85 72.02)" fill="#ff9d8e"/>
            <circle cx="1" cy="1" r="1" transform="translate(592.51 75.94)" fill="#ff9d8e"/>
            <circle cx="1" cy="1" r="1" transform="translate(590.42 82.32)" fill="#ff9d8e"/>
            <circle cx="1" cy="1" r="1" transform="translate(558.92 115.29)" fill="#ff9d8e"/>
            <circle cx="1" cy="1" r="1" transform="translate(591.74 145.81)" fill="#ff9d8e"/>
            <circle cx="1" cy="1" r="1" transform="translate(583.17 156.18)" fill="#ff9d8e"/>
            <circle cx="1" cy="1" r="1" transform="translate(587.24 149.51)" fill="#ff9d8e"/>
            <circle cx="1" cy="1" r="1" transform="translate(608.93 159.44)" fill="#ff9d8e"/>
            <circle cx="1" cy="1" r="1" transform="translate(609.29 148.26)" fill="#ff9d8e"/>
            <circle cx="1" cy="1" r="1" transform="translate(597.68 144.93)" fill="#ff9d8e"/>
            <circle cx="1" cy="1" r="1" transform="translate(626.4 147.75)" fill="#ff9d8e"/>
            <circle cx="1" cy="1" r="1" transform="translate(626.92 137.57)" fill="#ff9d8e"/>
            <circle cx="1" cy="1" r="1" transform="translate(638.05 130.86)" fill="#ff9d8e"/>
            <circle cx="1" cy="1" r="1" transform="translate(633.51 127.49)" fill="#ff9d8e"/>
            <circle cx="1" cy="1" r="1" transform="translate(641.9 136.36)" fill="#ff9d8e"/>
            <circle cx="1" cy="1" r="1" transform="translate(641.42 126.32)" fill="#ff9d8e"/>
            <circle cx="1" cy="1" r="1" transform="translate(621.68 136.32)" fill="#ff9d8e"/>
            <circle cx="1" cy="1" r="1" transform="translate(622.41 141.27)" fill="#ff9d8e"/>
            <circle cx="1" cy="1" r="1" transform="translate(614.35 141.45)" fill="#ff9d8e"/>
            <circle cx="1" cy="1" r="1" transform="translate(604.6 143.9)" fill="#ff9d8e"/>
            <circle cx="1" cy="1" r="1" transform="translate(600.24 148.59)" fill="#ff9d8e"/>
            <circle cx="1" cy="1" r="1" transform="translate(578.59 145.74)" fill="#ff9d8e"/>
            <circle cx="1" cy="1" r="1" transform="translate(564.41 111.45)" fill="#ff9d8e"/>
            <circle cx="1" cy="1" r="1" transform="translate(563.53 105.51)" fill="#ff9d8e"/>
            <circle cx="1" cy="1" r="1" transform="translate(571.55 98.26)" fill="#ff9d8e"/>
            <circle cx="1" cy="1" r="1" transform="translate(565.62 99.14)" fill="#ff9d8e"/>
            <circle cx="1" cy="1" r="1" transform="translate(559.79 93.93)" fill="#ff9d8e"/>
            <circle cx="1" cy="1" r="1" transform="translate(564.59 92.21)" fill="#ff9d8e"/>
            <circle cx="1" cy="1" r="1" transform="translate(579.28 89.02)" fill="#ff9d8e"/>
            <circle cx="1" cy="1" r="1" transform="translate(566.39 83.86)" fill="#ff9d8e"/>
            <circle cx="1" cy="1" r="1" transform="translate(583.79 85.32)" fill="#ff9d8e"/>
            <circle cx="1" cy="1" r="1" transform="translate(576.72 85.36)" fill="#ff9d8e"/>
            <circle cx="1" cy="1" r="1" transform="translate(587.86 78.66)" fill="#ff9d8e"/>
            <path d="M811.68,851.4a3.52,3.52,0,0,0,0-1.41,3.521,3.521,0,0,1,.82-2.93c1.45-1.7,2.5-.52,5.4-.68,1.27-.06,9.7-.88,20.49-16.36s9.3-37.73-.76-55.7-18.06-26.52-38.93-37.18-40.17-10-62.51,3.87-33.09,41.33-33,56,5.92,36.08,21,50.85,31.71,28.32,57.84,25.85C782.05,873.68,806.68,869.5,811.68,851.4Z" transform="translate(-163.7 -87.83)" fill="#ff9d8e"/>
            <path d="M799.56,832s20.47,9.74,23.23,8.56,18.94-10.9,19.8-30.26-7.78-39.58-18.66-52.33-39-30.29-66.26-24-45.1,35.68-47.87,44.48-9.23,34.39,12.41,62.12,54.85,34.2,67.33,27.78,17.21-10.62,17.34-12.85-8.51-22.5-8.51-22.5Z" transform="translate(-163.7 -87.83)" fill="#fec5a2"/>
            <path d="M792,838.29s20.81-7.12,18.47-27.87S788.46,774.16,773,771s-23-5.41-30.46,0-3.06,32.3,9.79,49.64C761.4,832.9,772.64,843.7,792,838.29Z" transform="translate(-163.7 -87.83)" fill="#ff9d8e"/>
            <path d="M799.7,825.91s13.39-16.95-4.63-36.26-42.33-18.13-46.8-14.34-7.75,13.9,1.81,33.74,27.56,28.05,38.28,24.29C797.2,830.24,799.7,825.91,799.7,825.91Z" transform="translate(-163.7 -87.83)" fill="#8c633a"/>
            <path d="M778.81,830.48s.45-1.5-.82-1.93-5.19-1.34-7.84-3.07c-3-2-3.15.26-1.44,1.71C769.47,827.83,777.76,833.11,778.81,830.48Z" transform="translate(-163.7 -87.83)" fill="#fff"/>
            <circle cx="1" cy="1" r="1" transform="translate(616.61 741.12)" fill="#fff"/>
            <path d="M803.13,802.14s-6.27-22.32-33.71-28-24.56,6.14-25.49,14.15c0,0,1.72-10,8-10.49S784.78,771.92,803.13,802.14Z" transform="translate(-163.7 -87.83)" fill="#77532c"/>
            <circle cx="1" cy="1" r="1" transform="translate(649.21 713.06)" fill="#ff9d8e"/>
            <circle cx="1" cy="1" r="1" transform="translate(644.09 708.72)" fill="#ff9d8e"/>
            <circle cx="1" cy="1" r="1" transform="translate(655.38 707.16)" fill="#ff9d8e"/>
            <circle cx="1" cy="1" r="1" transform="translate(645.29 688.63)" fill="#ff9d8e"/>
            <circle cx="1" cy="1" r="1" transform="translate(643.45 697.03)" fill="#ff9d8e"/>
            <circle cx="1" cy="1" r="1" transform="translate(636.75 696.63)" fill="#ff9d8e"/>
            <circle cx="1" cy="1" r="1" transform="translate(596.86 674.53)" fill="#ff9d8e"/>
            <circle cx="1" cy="1" r="1" transform="translate(575.67 714.03)" fill="#ff9d8e"/>
            <circle cx="1" cy="1" r="1" transform="translate(563.47 708.37)" fill="#ff9d8e"/>
            <circle cx="1" cy="1" r="1" transform="translate(570.95 710.61)" fill="#ff9d8e"/>
            <circle cx="1" cy="1" r="1" transform="translate(566.86 734.11)" fill="#ff9d8e"/>
            <circle cx="1" cy="1" r="1" transform="translate(577.76 731.63)" fill="#ff9d8e"/>
            <circle cx="1" cy="1" r="1" transform="translate(578.03 719.55)" fill="#ff9d8e"/>
            <circle cx="1" cy="1" r="1" transform="translate(582.6 748.05)" fill="#ff9d8e"/>
            <circle cx="1" cy="1" r="1" transform="translate(592.58 745.96)" fill="#ff9d8e"/>
            <circle cx="1" cy="1" r="1" transform="translate(601.89 755.03)" fill="#ff9d8e"/>
            <circle cx="1" cy="1" r="1" transform="translate(604 749.78)" fill="#ff9d8e"/>
            <circle cx="1" cy="1" r="1" transform="translate(597.55 760.14)" fill="#ff9d8e"/>
            <circle cx="1" cy="1" r="1" transform="translate(607.14 757.13)" fill="#ff9d8e"/>
            <circle cx="1" cy="1" r="1" transform="translate(592.45 740.57)" fill="#ff9d8e"/>
            <circle cx="1" cy="1" r="1" transform="translate(587.85 742.54)" fill="#ff9d8e"/>
            <circle cx="1" cy="1" r="1" transform="translate(585.63 734.79)" fill="#ff9d8e"/>
            <circle cx="1" cy="1" r="1" transform="translate(580.78 725.98)" fill="#ff9d8e"/>
            <circle cx="1" cy="1" r="1" transform="translate(575.14 722.96)" fill="#ff9d8e"/>
            <circle cx="1" cy="1" r="1" transform="translate(572.41 701.29)" fill="#ff9d8e"/>
            <circle cx="1" cy="1" r="1" transform="translate(601.97 678.87)" fill="#ff9d8e"/>
            <circle cx="1" cy="1" r="1" transform="translate(607.49 676.51)" fill="#ff9d8e"/>
            <circle cx="1" cy="1" r="1" transform="translate(616.55 682.43)" fill="#ff9d8e"/>
            <circle cx="1" cy="1" r="1" transform="translate(614.19 676.91)" fill="#ff9d8e"/>
            <circle cx="1" cy="1" r="1" transform="translate(617.74 669.96)" fill="#ff9d8e"/>
            <circle cx="1" cy="1" r="1" transform="translate(620.62 674.16)" fill="#ff9d8e"/>
            <circle cx="1" cy="1" r="1" transform="translate(627.44 687.56)" fill="#ff9d8e"/>
            <circle cx="1" cy="1" r="1" transform="translate(629.16 673.78)" fill="#ff9d8e"/>
            <circle cx="1" cy="1" r="1" transform="translate(632.16 690.98)" fill="#ff9d8e"/>
            <circle cx="1" cy="1" r="1" transform="translate(630.33 684.15)" fill="#ff9d8e"/>
            <circle cx="1" cy="1" r="1" transform="translate(639.64 693.22)" fill="#ff9d8e"/>
            <path d="M221.45,695.54a3.33,3.33,0,0,0,.53,1.31,3.55,3.55,0,0,1,.44,3c-.63,2.14-2.07,1.49-4.67,2.81-1.13.57-8.51,4.73-12.1,23.25s6.77,38.27,23.25,50.63,27.25,16.93,50.64,18.23,40.79-7.1,55.59-28.85,13.52-51.19,7.51-64.54-20-30.59-39.76-38-40.47-13.06-63.36-.22C239.52,663.17,218.69,677,221.45,695.54Z" transform="translate(-163.7 -87.83)" fill="#ff9d8e"/>
            <path d="M240.41,708.42s-22.66-.61-24.71,1.58-12.91,17.63-5.86,35.68S233,778.73,248.1,786s48,11.89,70.3-4.89,26.79-50.9,25.76-60.06-5.49-35.18-36.5-51.78-64-9.06-72.81,1.87-11.44,16.68-10.66,18.77S241.07,707,241.07,707Z" transform="translate(-163.7 -87.83)" fill="#fec5a2"/>
            <path d="M244.75,699.57s-16.16,14.93-5.61,32.95S274,756.77,289.4,753.39s23.2-4.36,27.87-12.3S307,710.32,288.21,699.66C274.91,692.11,260.26,686.78,244.75,699.57Z" transform="translate(-163.7 -87.83)" fill="#ff9d8e"/>
            <path d="M242.73,714s-5.39,20.92,18.91,31.28,46.05-.56,48.59-5.84,1.47-15.85-15.31-30.11-36.55-14.49-44.83-6.71C243.26,709,242.73,714,242.73,714Z" transform="translate(-163.7 -87.83)" fill="#8c633a"/>
            <path d="M260,701.36s.2,1.55,1.54,1.43,5.28-.87,8.4-.36c3.56.58,2.78-1.52.64-2.15C269.59,700,259.87,698.54,260,701.36Z" transform="translate(-163.7 -87.83)" fill="#fff"/>
            <circle cx="1" cy="1" r="1" transform="translate(93.21 614.02)" fill="#fff"/>
            <path d="M249.2,737.12s14.79,17.87,42.17,12,20-15.57,17.58-23.27c0,0,2.47,9.82-3.09,12.85S278.22,757.32,249.2,737.12Z" transform="translate(-163.7 -87.83)" fill="#77532c"/>
            <circle cx="1" cy="1" r="1" transform="translate(74.77 652.88)" fill="#ff9d8e"/>
            <circle cx="1" cy="1" r="1" transform="translate(81.2 654.77)" fill="#ff9d8e"/>
            <circle cx="1" cy="1" r="1" transform="translate(71.51 660.77)" fill="#ff9d8e"/>
            <circle cx="1" cy="1" r="1" transform="translate(88.23 673.63)" fill="#ff9d8e"/>
            <circle cx="1" cy="1" r="1" transform="translate(86.52 665.2)" fill="#ff9d8e"/>
            <circle cx="1" cy="1" r="1" transform="translate(92.81 662.85)" fill="#ff9d8e"/>
            <circle cx="1" cy="1" r="1" transform="translate(138.23 666.91)" fill="#ff9d8e"/>
            <circle cx="1" cy="1" r="1" transform="translate(141.61 622.21)" fill="#ff9d8e"/>
            <circle cx="1" cy="1" r="1" transform="translate(155.06 622.45)" fill="#ff9d8e"/>
            <circle cx="1" cy="1" r="1" transform="translate(147.31 623.43)" fill="#ff9d8e"/>
            <circle cx="1" cy="1" r="1" transform="translate(141.54 600.28)" fill="#ff9d8e"/>
            <circle cx="1" cy="1" r="1" transform="translate(132.58 606.97)" fill="#ff9d8e"/>
            <circle cx="1" cy="1" r="1" transform="translate(137.22 618.12)" fill="#ff9d8e"/>
            <circle cx="1" cy="1" r="1" transform="translate(121.51 593.91)" fill="#ff9d8e"/>
            <circle cx="1" cy="1" r="1" transform="translate(113.22 599.87)" fill="#ff9d8e"/>
            <circle cx="1" cy="1" r="1" transform="translate(101.04 595.34)" fill="#ff9d8e"/>
            <circle cx="1" cy="1" r="1" transform="translate(101.24 601)" fill="#ff9d8e"/>
            <circle cx="1" cy="1" r="1" transform="translate(102.93 588.91)" fill="#ff9d8e"/>
            <circle cx="1" cy="1" r="1" transform="translate(95.38 595.54)" fill="#ff9d8e"/>
            <circle cx="1" cy="1" r="1" transform="translate(115.52 604.74)" fill="#ff9d8e"/>
            <circle cx="1" cy="1" r="1" transform="translate(118.93 601.08)" fill="#ff9d8e"/>
            <circle cx="1" cy="1" r="1" transform="translate(124.1 607.27)" fill="#ff9d8e"/>
            <circle cx="1" cy="1" r="1" transform="translate(132.1 613.35)" fill="#ff9d8e"/>
            <circle cx="1" cy="1" r="1" transform="translate(138.48 613.83)" fill="#ff9d8e"/>
            <circle cx="1" cy="1" r="1" transform="translate(149.76 632.54)" fill="#ff9d8e"/>
            <circle cx="1" cy="1" r="1" transform="translate(131.8 665.01)" fill="#ff9d8e"/>
            <circle cx="1" cy="1" r="1" transform="translate(127.71 669.4)" fill="#ff9d8e"/>
            <circle cx="1" cy="1" r="1" transform="translate(117.03 667.66)" fill="#ff9d8e"/>
            <circle cx="1" cy="1" r="1" transform="translate(121.42 671.75)" fill="#ff9d8e"/>
            <circle cx="1" cy="1" r="1" transform="translate(120.99 679.55)" fill="#ff9d8e"/>
            <circle cx="1" cy="1" r="1" transform="translate(116.65 676.87)" fill="#ff9d8e"/>
            <circle cx="1" cy="1" r="1" transform="translate(104.99 667.37)" fill="#ff9d8e"/>
            <circle cx="1" cy="1" r="1" transform="translate(109 680.68)" fill="#ff9d8e"/>
            <circle cx="1" cy="1" r="1" transform="translate(99.29 666.16)" fill="#ff9d8e"/>
            <circle cx="1" cy="1" r="1" transform="translate(103.73 671.66)" fill="#ff9d8e"/>
            <circle cx="1" cy="1" r="1" transform="translate(91.54 667.14)" fill="#ff9d8e"/>
            <path d="M787,482.82a3.24,3.24,0,0,0-1.12.86,3.54,3.54,0,0,1-2.78,1.22c-2.24,0-2-1.6-4-3.75-.85-.93-6.83-6.93-25.64-5.45s-35.07,16.75-42.58,35.93-9,30.78-4,53.67,17.74,37.41,42.65,45.86,52.94-.63,64.2-10,24.13-27.46,26-48.47,1.77-42.47-16.71-61.11C823,491.58,804.12,475.2,787,482.82Z" transform="translate(-163.7 -87.83)" fill="#ff9d8e"/>
            <path d="M779.61,504.53s-5.46-22-8.12-23.39-20.44-7.73-36,3.88-25.67,31.13-28.62,47.63,1.36,49.4,23.49,66.44,56.2,12.22,64.76,8.78,32.44-14.68,40.14-49S827,494.78,814.07,489.2s-19.13-6.57-20.94-5.25-12,20.82-12,20.82Z" transform="translate(-163.7 -87.83)" fill="#fec5a2"/>
            <path d="M789.3,506.34s-18.7-11.58-33.26,3.4-14.06,40-6.68,54,10.39,21.19,19.3,23.57,26.9-18.13,32.16-39.07C804.55,533.42,805.77,517.88,789.3,506.34Z" transform="translate(-163.7 -87.83)" fill="#ff9d8e"/>
            <path d="M774.85,508.25s-21.6.4-25.09,26.58,12.84,44.23,18.61,45.27,15.66-2.82,24.93-22.8,4.2-39.1-5.51-45C779.79,507.44,774.85,508.25,774.85,508.25Z" transform="translate(-163.7 -87.83)" fill="#8c633a"/>
            <path d="M791.64,521.49s-1.45.61-1,1.87,2.25,4.85,2.6,8c.39,3.58,2.2,2.27,2.23,0C795.52,530.39,794.33,520.64,791.64,521.49Z" transform="translate(-163.7 -87.83)" fill="#fff"/>
            <circle cx="1" cy="1" r="1" transform="translate(624.95 431.06)" fill="#fff"/>
            <path d="M754.3,520.67s-13.27,19-.26,43.83,20.34,15.08,27.12,10.72c0,0-8.81,5-13.21.46S742.58,554,754.3,520.67Z" transform="translate(-163.7 -87.83)" fill="#77532c"/>
            <circle cx="1" cy="1" r="1" transform="translate(582.58 423.67)" fill="#ff9d8e"/>
            <circle cx="1" cy="1" r="1" transform="translate(582.47 430.38)" fill="#ff9d8e"/>
            <circle cx="1" cy="1" r="1" transform="translate(574.1 422.64)" fill="#ff9d8e"/>
            <circle cx="1" cy="1" r="1" transform="translate(566.18 442.19)" fill="#ff9d8e"/>
            <circle cx="1" cy="1" r="1" transform="translate(573.85 438.29)" fill="#ff9d8e"/>
            <circle cx="1" cy="1" r="1" transform="translate(577.79 443.72)" fill="#ff9d8e"/>
            <circle cx="1" cy="1" r="1" transform="translate(586.01 488.58)" fill="#ff9d8e"/>
            <circle cx="1" cy="1" r="1" transform="translate(629.98 479.89)" fill="#ff9d8e"/>
            <circle cx="1" cy="1" r="1" transform="translate(633.35 492.92)" fill="#ff9d8e"/>
            <circle cx="1" cy="1" r="1" transform="translate(630.34 485.71)" fill="#ff9d8e"/>
            <circle cx="1" cy="1" r="1" transform="translate(651.1 473.97)" fill="#ff9d8e"/>
            <circle cx="1" cy="1" r="1" transform="translate(642.26 467.12)" fill="#ff9d8e"/>
            <circle cx="1" cy="1" r="1" transform="translate(632.75 474.57)" fill="#ff9d8e"/>
            <circle cx="1" cy="1" r="1" transform="translate(651.88 452.96)" fill="#ff9d8e"/>
            <circle cx="1" cy="1" r="1" transform="translate(643.94 446.57)" fill="#ff9d8e"/>
            <circle cx="1" cy="1" r="1" transform="translate(645.04 433.62)" fill="#ff9d8e"/>
            <circle cx="1" cy="1" r="1" transform="translate(639.65 435.32)" fill="#ff9d8e"/>
            <circle cx="1" cy="1" r="1" transform="translate(651.75 433.73)" fill="#ff9d8e"/>
            <circle cx="1" cy="1" r="1" transform="translate(643.34 428.23)" fill="#ff9d8e"/>
            <circle cx="1" cy="1" r="1" transform="translate(639.85 450.09)" fill="#ff9d8e"/>
            <circle cx="1" cy="1" r="1" transform="translate(644.29 452.39)" fill="#ff9d8e"/>
            <circle cx="1" cy="1" r="1" transform="translate(639.71 459.03)" fill="#ff9d8e"/>
            <circle cx="1" cy="1" r="1" transform="translate(635.98 468.36)" fill="#ff9d8e"/>
            <circle cx="1" cy="1" r="1" transform="translate(637.22 474.64)" fill="#ff9d8e"/>
            <circle cx="1" cy="1" r="1" transform="translate(622.21 490.5)" fill="#ff9d8e"/>
            <circle cx="1" cy="1" r="1" transform="translate(586.12 481.87)" fill="#ff9d8e"/>
            <circle cx="1" cy="1" r="1" transform="translate(580.8 479.1)" fill="#ff9d8e"/>
            <circle cx="1" cy="1" r="1" transform="translate(579.63 468.35)" fill="#ff9d8e"/>
            <circle cx="1" cy="1" r="1" transform="translate(576.86 473.67)" fill="#ff9d8e"/>
            <circle cx="1" cy="1" r="1" transform="translate(569.23 475.34)" fill="#ff9d8e"/>
            <circle cx="1" cy="1" r="1" transform="translate(570.65 470.44)" fill="#ff9d8e"/>
            <circle cx="1" cy="1" r="1" transform="translate(576.68 456.67)" fill="#ff9d8e"/>
            <circle cx="1" cy="1" r="1" transform="translate(564.94 464.09)" fill="#ff9d8e"/>
            <circle cx="1" cy="1" r="1" transform="translate(576.33 450.85)" fill="#ff9d8e"/>
            <circle cx="1" cy="1" r="1" transform="translate(572.21 456.6)" fill="#ff9d8e"/>
            <circle cx="1" cy="1" r="1" transform="translate(573.31 443.65)" fill="#ff9d8e"/>
            <path d="M575.13,456.33a3.261,3.261,0,0,0-.5,1.32,3.5,3.5,0,0,1-1.73,2.5c-1.92,1.14-2.53-.32-5.33-1.11-1.22-.35-9.46-2.32-24.69,8.82s-21,32.66-17.38,52.92,8.46,31,24.73,47.81S585,591.12,610.6,585.24,655.33,556.91,660,543s6.12-36-3.31-54.9-20.79-37.1-46.3-43.22C610.39,444.88,585.73,440.83,575.13,456.33Z" transform="translate(-163.7 -87.83)" fill="#ff9d8e"/>
            <path d="M580.27,478.66S564.07,462.8,561.08,463s-21.46,4.15-28.56,22.17-5.51,40,.64,55.57S560.24,582.09,588,585s54.25-19.1,59.72-26.52,19.91-29.52,8.46-62.78-40.76-50.16-54.65-48.15-19.7,4.45-20.53,6.5.75,24,.75,24Z" transform="translate(-163.7 -87.83)" fill="#fec5a2"/>
            <path d="M589.47,475.12s-22,0-26.53,20.35,9,41.45,22.67,49.48,20,12.58,28.8,9.93,13.38-29.55,6.86-50.13C616.66,490.16,609.54,476.3,589.47,475.12Z" transform="translate(-163.7 -87.83)" fill="#ff9d8e"/>
            <path d="M578.17,484.33S560,496,570.77,520.13s34.14,30.9,39.59,28.76,11.86-10.62,9.26-32.49-17-35.48-28.31-35.41C581.94,481.05,578.17,484.33,578.17,484.33Z" transform="translate(-163.7 -87.83)" fill="#8c633a"/>
            <path d="M599.41,486.79s-.91,1.27.15,2.1,4.47,2.95,6.42,5.44c2.21,2.85,3.06.78,1.92-1.14C607.39,492.33,601.26,484.65,599.41,486.79Z" transform="translate(-163.7 -87.83)" fill="#fff"/>
            <circle cx="1" cy="1" r="1" transform="translate(432.18 397.64)" fill="#fff"/>
            <path d="M567.2,505.69s-1.32,23.15,22.78,37.44,25.23,2.17,28.71-5.11c0,0-4.87,8.88-11,7.32S574.73,540.23,567.2,505.69Z" transform="translate(-163.7 -87.83)" fill="#77532c"/>
            <circle cx="1" cy="1" r="1" transform="translate(392.24 413.59)" fill="#ff9d8e"/>
            <circle cx="1" cy="1" r="1" transform="translate(395.67 419.36)" fill="#ff9d8e"/>
            <circle cx="1" cy="1" r="1" transform="translate(384.48 417.17)" fill="#ff9d8e"/>
            <circle cx="1" cy="1" r="1" transform="translate(388 437.96)" fill="#ff9d8e"/>
            <circle cx="1" cy="1" r="1" transform="translate(392.48 430.62)" fill="#ff9d8e"/>
            <circle cx="1" cy="1" r="1" transform="translate(398.68 433.17)" fill="#ff9d8e"/>
            <circle cx="1" cy="1" r="1" transform="translate(429.23 467.04)" fill="#ff9d8e"/>
            <circle cx="1" cy="1" r="1" transform="translate(462.1 436.57)" fill="#ff9d8e"/>
            <circle cx="1" cy="1" r="1" transform="translate(471.8 445.89)" fill="#ff9d8e"/>
            <circle cx="1" cy="1" r="1" transform="translate(465.45 441.34)" fill="#ff9d8e"/>
            <circle cx="1" cy="1" r="1" transform="translate(476.96 420.44)" fill="#ff9d8e"/>
            <circle cx="1" cy="1" r="1" transform="translate(465.85 419.25)" fill="#ff9d8e"/>
            <circle cx="1" cy="1" r="1" transform="translate(461.66 430.58)" fill="#ff9d8e"/>
            <circle cx="1" cy="1" r="1" transform="translate(466.6 402.15)" fill="#ff9d8e"/>
            <circle cx="1" cy="1" r="1" transform="translate(456.48 400.88)" fill="#ff9d8e"/>
            <circle cx="1" cy="1" r="1" transform="translate(450.62 389.28)" fill="#ff9d8e"/>
            <circle cx="1" cy="1" r="1" transform="translate(446.93 393.56)" fill="#ff9d8e"/>
            <circle cx="1" cy="1" r="1" transform="translate(456.39 385.85)" fill="#ff9d8e"/>
            <circle cx="1" cy="1" r="1" transform="translate(446.34 385.58)" fill="#ff9d8e"/>
            <circle cx="1" cy="1" r="1" transform="translate(454.85 406.01)" fill="#ff9d8e"/>
            <circle cx="1" cy="1" r="1" transform="translate(459.84 405.65)" fill="#ff9d8e"/>
            <circle cx="1" cy="1" r="1" transform="translate(459.43 413.7)" fill="#ff9d8e"/>
            <circle cx="1" cy="1" r="1" transform="translate(461.15 423.6)" fill="#ff9d8e"/>
            <circle cx="1" cy="1" r="1" transform="translate(465.5 428.3)" fill="#ff9d8e"/>
            <circle cx="1" cy="1" r="1" transform="translate(461.05 449.68)" fill="#ff9d8e"/>
            <circle cx="1" cy="1" r="1" transform="translate(425.8 461.27)" fill="#ff9d8e"/>
            <circle cx="1" cy="1" r="1" transform="translate(419.82 461.71)" fill="#ff9d8e"/>
            <circle cx="1" cy="1" r="1" transform="translate(413.18 453.17)" fill="#ff9d8e"/>
            <circle cx="1" cy="1" r="1" transform="translate(413.61 459.16)" fill="#ff9d8e"/>
            <circle cx="1" cy="1" r="1" transform="translate(407.99 464.58)" fill="#ff9d8e"/>
            <circle cx="1" cy="1" r="1" transform="translate(406.63 459.67)" fill="#ff9d8e"/>
            <circle cx="1" cy="1" r="1" transform="translate(404.54 444.78)" fill="#ff9d8e"/>
            <circle cx="1" cy="1" r="1" transform="translate(398.43 457.26)" fill="#ff9d8e"/>
            <circle cx="1" cy="1" r="1" transform="translate(401.19 440.01)" fill="#ff9d8e"/>
            <circle cx="1" cy="1" r="1" transform="translate(400.7 447.06)" fill="#ff9d8e"/>
            <circle cx="1" cy="1" r="1" transform="translate(394.84 435.46)" fill="#ff9d8e"/>
        </g>
    </g>
</svg>